# Blender v2.80 (sub 41) OBJ File: 'swamp.blend'
# www.blender.org
o SM_Grass_06_Plane.970
v 0.074867 -0.000000 -0.048212
v -0.127243 1.083477 0.377057
v 0.097841 1.013853 0.401459
v 0.098860 -0.000000 -0.056532
v -0.032681 0.763352 0.159597
v 0.242621 0.723808 0.180317
v 0.092410 0.377920 0.024594
v 0.114298 0.377328 0.020111
v 0.000801 0.660567 0.125843
v 0.171593 0.566707 0.079371
v 0.012323 0.262308 -0.256156
v 0.307615 0.258696 -0.333231
v -0.114904 -0.040163 -0.052015
v -0.188429 0.222907 -0.299555
v -0.178164 0.391786 -0.593684
v 0.268023 0.356721 -0.560689
v 0.012323 -0.000000 -0.009333
v 0.033922 0.373359 -0.495871
v 0.166484 -0.040163 -0.052015
v 0.251967 0.420194 -0.012020
v 0.399104 0.447666 0.349329
v 0.107681 -0.031079 -0.156247
v 0.284121 0.390335 -0.276410
v 0.570123 0.716746 -0.303648
v 0.625060 0.660576 0.266067
v 0.062857 0.000000 0.014775
v 0.498316 0.653971 -0.018971
v 0.158270 -0.031079 0.200787
v -0.149746 0.358180 0.147331
v -0.450152 0.370507 -0.052754
v 0.079337 -0.037584 0.144380
v -0.035288 0.321637 0.363675
v -0.271482 0.581238 0.558698
v -0.600511 0.533357 0.144636
v 0.022390 -0.000000 -0.006678
v -0.356933 0.538819 0.298406
v -0.142678 -0.037584 -0.103765
v -0.135578 0.310904 -0.152115
v -0.317709 0.323223 0.097193
v 0.042056 -0.031004 -0.220106
v -0.108017 0.280803 -0.359874
v -0.350394 0.508861 -0.445052
v -0.493611 0.467300 -0.015876
v 0.041480 -0.000000 -0.081722
v -0.343161 0.470421 -0.211111
v -0.063191 -0.031004 0.044621
v 0.064532 0.317854 0.081446
v 0.336580 0.352210 0.087176
v -0.049346 -0.009935 0.095252
v -0.101779 0.308842 0.168505
v -0.064249 0.578564 0.305689
v 0.326906 0.536073 0.217197
v 0.052274 0.000000 0.021631
v 0.109336 0.517503 0.203399
v 0.198371 -0.009935 0.044487
v 0.129938 0.251623 -0.234051
v 0.416645 0.249340 -0.201169
v -0.050367 -0.037346 -0.101685
v -0.032032 0.215008 -0.341433
v 0.076595 0.378992 -0.594918
v 0.458913 0.345355 -0.413879
v 0.047017 0.000000 -0.020042
v 0.230277 0.360135 -0.436484
v 0.197734 -0.037346 -0.005554
v 0.094562 0.000000 -0.038799
v 0.424852 1.004839 -0.564949
v 0.220188 0.918843 -0.647549
v 0.069167 0.000000 -0.038799
v 0.264261 0.721582 -0.335412
v 0.010943 0.662821 -0.436218
v 0.101842 0.358186 -0.180509
v 0.079693 0.357073 -0.183290
v 0.221568 0.624282 -0.296232
v 0.044977 0.529791 -0.291095
v -0.001540 0.000000 -0.018196
v -0.271822 1.041178 0.470192
v -0.438145 0.961561 0.321520
v -0.012176 0.000000 -0.041256
v -0.150347 0.741638 0.237316
v -0.351694 0.690535 0.051219
v -0.102634 0.367731 0.036448
v -0.114503 0.366828 0.017531
v -0.139317 0.641695 0.185214
v -0.215005 0.547083 0.025654
v 0.022989 -0.000000 -0.073542
v -0.495274 1.013466 -0.389633
v -0.347173 0.928859 -0.553990
v 0.045880 -0.000000 -0.084538
v -0.253186 0.726424 -0.256551
v -0.068915 0.669351 -0.457973
v -0.042341 0.360498 -0.192728
v -0.023588 0.359431 -0.204841
v -0.198443 0.628485 -0.241186
v -0.037723 0.533921 -0.314440
v 0.198922 0.000000 0.082472
v 0.545470 1.128415 0.129490
v 0.412161 1.079283 -0.060037
v 0.176279 0.000000 0.070976
v 0.353474 0.780134 0.152918
v 0.179851 0.763052 -0.064677
v 0.204698 0.385197 0.087177
v 0.186305 0.385197 0.074480
v 0.315313 0.675242 0.133776
v 0.171593 0.585611 0.026770
v 0.000154 0.000000 0.002438
v 0.116695 1.134253 0.311492
v 0.151716 1.096171 0.080344
v -0.008652 0.000000 -0.021381
v -0.007112 0.776977 0.186046
v 0.014374 0.771460 -0.091968
v -0.034733 0.383130 0.023096
v -0.039617 0.383427 0.001288
v -0.012322 0.672584 0.142456
v -0.036862 0.586417 -0.036743
v 0.074867 -0.000000 -0.048212
v -0.127243 1.083477 0.377057
v 0.097841 1.013853 0.401459
v 0.098860 -0.000000 -0.056532
v -0.032681 0.763352 0.159597
v 0.242621 0.723808 0.180317
v 0.092410 0.377920 0.024594
v 0.114298 0.377328 0.020111
v 0.000801 0.660567 0.125843
v 0.171593 0.566707 0.079371
v 0.012323 0.262308 -0.256156
v 0.307615 0.258696 -0.333231
v -0.114904 -0.040163 -0.052015
v -0.188429 0.222907 -0.299555
v -0.178164 0.391786 -0.593684
v 0.268023 0.356721 -0.560689
v 0.012323 -0.000000 -0.009333
v 0.033922 0.373359 -0.495871
v 0.166484 -0.040163 -0.052015
v 0.251967 0.420194 -0.012020
v 0.399104 0.447666 0.349329
v 0.107681 -0.031079 -0.156247
v 0.284121 0.390335 -0.276410
v 0.570123 0.716746 -0.303648
v 0.625060 0.660576 0.266067
v 0.062857 0.000000 0.014775
v 0.498316 0.653971 -0.018971
v 0.158270 -0.031079 0.200787
v -0.149746 0.358180 0.147331
v -0.450152 0.370507 -0.052754
v 0.079337 -0.037584 0.144380
v -0.035288 0.321637 0.363675
v -0.271482 0.581238 0.558698
v -0.600511 0.533357 0.144636
v 0.022390 -0.000000 -0.006678
v -0.356933 0.538819 0.298406
v -0.142678 -0.037584 -0.103765
v -0.135578 0.310904 -0.152115
v -0.317709 0.323223 0.097193
v 0.042056 -0.031004 -0.220106
v -0.108017 0.280803 -0.359874
v -0.350394 0.508861 -0.445052
v -0.493611 0.467300 -0.015876
v 0.041480 -0.000000 -0.081722
v -0.343161 0.470421 -0.211111
v -0.063191 -0.031004 0.044621
v 0.064532 0.317854 0.081446
v 0.336580 0.352210 0.087176
v -0.049346 -0.009935 0.095252
v -0.101779 0.308842 0.168505
v -0.064249 0.578564 0.305689
v 0.326906 0.536073 0.217197
v 0.052274 0.000000 0.021631
v 0.109336 0.517503 0.203399
v 0.198371 -0.009935 0.044487
v 0.129938 0.251623 -0.234051
v 0.416645 0.249340 -0.201169
v -0.050367 -0.037346 -0.101685
v -0.032032 0.215008 -0.341433
v 0.076595 0.378992 -0.594918
v 0.458913 0.345355 -0.413879
v 0.047017 0.000000 -0.020042
v 0.230277 0.360135 -0.436484
v 0.197734 -0.037346 -0.005554
v 0.094562 0.000000 -0.038799
v 0.424852 1.004839 -0.564949
v 0.220188 0.918843 -0.647549
v 0.069167 0.000000 -0.038799
v 0.264261 0.721582 -0.335412
v 0.010943 0.662821 -0.436218
v 0.101842 0.358186 -0.180509
v 0.079693 0.357073 -0.183290
v 0.221568 0.624282 -0.296232
v 0.044977 0.529791 -0.291095
v -0.001540 0.000000 -0.018196
v -0.271822 1.041178 0.470192
v -0.438145 0.961561 0.321520
v -0.012176 0.000000 -0.041256
v -0.150347 0.741638 0.237316
v -0.351694 0.690535 0.051219
v -0.102634 0.367731 0.036448
v -0.114503 0.366828 0.017531
v -0.139317 0.641695 0.185214
v -0.215005 0.547083 0.025654
v 0.022989 -0.000000 -0.073542
v -0.495274 1.013466 -0.389633
v -0.347173 0.928859 -0.553990
v 0.045880 -0.000000 -0.084538
v -0.253186 0.726424 -0.256551
v -0.068915 0.669351 -0.457973
v -0.042341 0.360498 -0.192728
v -0.023588 0.359431 -0.204841
v -0.198443 0.628485 -0.241186
v -0.037723 0.533921 -0.314440
v 0.198922 0.000000 0.082472
v 0.545470 1.128415 0.129490
v 0.412161 1.079283 -0.060037
v 0.176279 0.000000 0.070976
v 0.353474 0.780134 0.152918
v 0.179851 0.763052 -0.064677
v 0.204698 0.385197 0.087177
v 0.186305 0.385197 0.074480
v 0.315313 0.675242 0.133776
v 0.171593 0.585611 0.026770
v 0.000154 0.000000 0.002438
v 0.116695 1.134253 0.311492
v 0.151716 1.096171 0.080344
v -0.008652 0.000000 -0.021381
v -0.007112 0.776977 0.186046
v 0.014374 0.771460 -0.091968
v -0.034733 0.383130 0.023096
v -0.039617 0.383427 0.001288
v -0.012322 0.672584 0.142456
v -0.036862 0.586417 -0.036743
vt 0.826987 0.385197
vt 0.966087 0.395056
vt 1.000000 0.596082
vt 0.885012 0.567723
vt 0.856717 0.293059
vt 0.945325 0.339787
vt 0.871120 0.000000
vt 0.883817 0.000000
vt 0.887510 0.192598
vt 0.876335 0.192598
vt 0.124107 0.382353
vt 0.224508 0.382353
vt 0.316422 0.649610
vt 0.124107 0.616924
vt 0.290636 0.820137
vt 0.138174 0.799101
vt -0.001537 0.616435
vt 0.000049 0.851494
vt 0.041248 0.382353
vt 0.124107 0.382353
vt 0.224508 0.382353
vt 0.316422 0.649610
vt 0.124107 0.616924
vt 0.290636 0.820137
vt 0.138174 0.799101
vt -0.001537 0.616435
vt 0.000049 0.851494
vt 0.041248 0.382353
vt 0.124107 0.382353
vt 0.224508 0.382353
vt 0.316422 0.649610
vt 0.124107 0.616924
vt 0.290636 0.820137
vt 0.138174 0.799101
vt -0.001537 0.616435
vt 0.000049 0.851494
vt 0.041248 0.382353
vt 0.124107 0.382353
vt 0.224508 0.382353
vt 0.316422 0.649610
vt 0.124107 0.616924
vt 0.290636 0.820137
vt 0.138174 0.799101
vt -0.001537 0.616435
vt 0.000049 0.851494
vt 0.041248 0.382353
vt 0.124107 0.382353
vt 0.224508 0.382353
vt 0.316422 0.649610
vt 0.124107 0.616924
vt 0.290636 0.820137
vt 0.138174 0.799101
vt -0.001537 0.616435
vt 0.000049 0.851494
vt 0.041248 0.382353
vt 0.124107 0.382353
vt 0.224508 0.382353
vt 0.316422 0.649610
vt 0.124107 0.616924
vt 0.290636 0.820137
vt 0.138174 0.799101
vt -0.001537 0.616435
vt 0.000049 0.851494
vt 0.041248 0.382353
vt 0.826987 0.385197
vt 0.966087 0.395056
vt 1.000000 0.596082
vt 0.885012 0.567723
vt 0.856717 0.293059
vt 0.945325 0.339787
vt 0.871120 0.000000
vt 0.883817 0.000000
vt 0.887510 0.192598
vt 0.876335 0.192598
vt 0.826987 0.385197
vt 0.966087 0.395056
vt 1.000000 0.596082
vt 0.885012 0.567723
vt 0.856717 0.293059
vt 0.945325 0.339787
vt 0.871120 0.000000
vt 0.883817 0.000000
vt 0.887510 0.192598
vt 0.876335 0.192598
vt 0.826987 0.385197
vt 0.966087 0.395056
vt 1.000000 0.596082
vt 0.885012 0.567723
vt 0.856717 0.293059
vt 0.945325 0.339787
vt 0.871120 0.000000
vt 0.883817 0.000000
vt 0.887510 0.192598
vt 0.876335 0.192598
vt 0.826987 0.385197
vt 0.966087 0.395056
vt 1.000000 0.596082
vt 0.885012 0.567723
vt 0.856717 0.293059
vt 0.945325 0.339787
vt 0.871120 0.000000
vt 0.883817 0.000000
vt 0.887510 0.192598
vt 0.876335 0.192598
vt 0.826987 0.385197
vt 0.966087 0.395056
vt 1.000000 0.596082
vt 0.885012 0.567723
vt 0.856717 0.293059
vt 0.945325 0.339787
vt 0.871120 0.000000
vt 0.883817 0.000000
vt 0.887510 0.192598
vt 0.876335 0.192598
vt 0.826987 0.385197
vt 0.885012 0.567723
vt 1.000000 0.596082
vt 0.966087 0.395056
vt 0.856717 0.293059
vt 0.945325 0.339787
vt 0.871120 0.000000
vt 0.876335 0.192598
vt 0.887510 0.192598
vt 0.883817 0.000000
vt 0.124107 0.382353
vt 0.124107 0.616924
vt 0.316422 0.649610
vt 0.224508 0.382353
vt 0.138174 0.799101
vt 0.290636 0.820137
vt -0.001537 0.616435
vt 0.000049 0.851494
vt 0.041248 0.382353
vt 0.124107 0.382353
vt 0.124107 0.616924
vt 0.316422 0.649610
vt 0.224508 0.382353
vt 0.138174 0.799101
vt 0.290636 0.820137
vt -0.001537 0.616435
vt 0.000049 0.851494
vt 0.041248 0.382353
vt 0.124107 0.382353
vt 0.124107 0.616924
vt 0.316422 0.649610
vt 0.224508 0.382353
vt 0.138174 0.799101
vt 0.290636 0.820137
vt -0.001537 0.616435
vt 0.000049 0.851494
vt 0.041248 0.382353
vt 0.124107 0.382353
vt 0.124107 0.616924
vt 0.316422 0.649610
vt 0.224508 0.382353
vt 0.138174 0.799101
vt 0.290636 0.820137
vt -0.001537 0.616435
vt 0.000049 0.851494
vt 0.041248 0.382353
vt 0.124107 0.382353
vt 0.124107 0.616924
vt 0.316422 0.649610
vt 0.224508 0.382353
vt 0.138174 0.799101
vt 0.290636 0.820137
vt -0.001537 0.616435
vt 0.000049 0.851494
vt 0.041248 0.382353
vt 0.124107 0.382353
vt 0.124107 0.616924
vt 0.316422 0.649610
vt 0.224508 0.382353
vt 0.138174 0.799101
vt 0.290636 0.820137
vt -0.001537 0.616435
vt 0.000049 0.851494
vt 0.041248 0.382353
vt 0.826987 0.385197
vt 0.885012 0.567723
vt 1.000000 0.596082
vt 0.966087 0.395056
vt 0.856717 0.293059
vt 0.945325 0.339787
vt 0.871120 0.000000
vt 0.876335 0.192598
vt 0.887510 0.192598
vt 0.883817 0.000000
vt 0.826987 0.385197
vt 0.885012 0.567723
vt 1.000000 0.596082
vt 0.966087 0.395056
vt 0.856717 0.293059
vt 0.945325 0.339787
vt 0.871120 0.000000
vt 0.876335 0.192598
vt 0.887510 0.192598
vt 0.883817 0.000000
vt 0.826987 0.385197
vt 0.885012 0.567723
vt 1.000000 0.596082
vt 0.966087 0.395056
vt 0.856717 0.293059
vt 0.945325 0.339787
vt 0.871120 0.000000
vt 0.876335 0.192598
vt 0.887510 0.192598
vt 0.883817 0.000000
vt 0.826987 0.385197
vt 0.885012 0.567723
vt 1.000000 0.596082
vt 0.966087 0.395056
vt 0.856717 0.293059
vt 0.945325 0.339787
vt 0.871120 0.000000
vt 0.876335 0.192598
vt 0.887510 0.192598
vt 0.883817 0.000000
vt 0.826987 0.385197
vt 0.885012 0.567723
vt 1.000000 0.596082
vt 0.966087 0.395056
vt 0.856717 0.293059
vt 0.945325 0.339787
vt 0.871120 0.000000
vt 0.876335 0.192598
vt 0.887510 0.192598
vt 0.883817 0.000000
vn 0.1406 0.5344 -0.8334
vn 0.1590 0.5608 -0.8125
vn 0.2040 0.6229 -0.7552
vn -0.0189 0.3748 -0.9269
vn 0.0417 0.4198 -0.9067
vn -0.2611 0.1983 -0.9447
vn -0.1698 0.2643 -0.9494
vn -0.1753 0.2604 -0.9494
vn -0.0416 0.6530 0.7562
vn 0.2570 0.6272 0.7352
vn 0.1923 0.8151 0.5464
vn -0.0359 0.7852 0.6182
vn 0.1418 0.9056 0.3998
vn -0.0302 0.9025 0.4296
vn -0.2658 0.7720 0.5773
vn -0.1969 0.8731 0.4461
vn -0.3364 0.6199 0.7089
vn -0.9231 0.3743 0.0888
vn -0.8533 0.3566 0.3805
vn -0.7454 0.5954 0.2998
vn -0.8351 0.5439 0.0821
vn -0.6440 0.7282 0.2345
vn -0.6950 0.7157 0.0680
vn -0.8249 0.5446 -0.1516
vn -0.7244 0.6826 -0.0962
vn -0.9095 0.3582 -0.2109
vn 0.6702 0.5052 -0.5438
vn 0.4522 0.4836 -0.7494
vn 0.3824 0.7026 -0.6001
vn 0.5830 0.6602 -0.4735
vn 0.3208 0.8181 -0.4773
vn 0.4569 0.8097 -0.3683
vn 0.7047 0.6546 -0.2738
vn 0.5762 0.7778 -0.2512
vn 0.8276 0.4812 -0.2890
vn -0.8270 -0.4853 -0.2840
vn -0.6927 -0.4642 -0.5520
vn -0.5804 -0.6867 -0.4377
vn -0.7243 -0.6428 -0.2493
vn -0.4828 -0.8051 -0.3445
vn -0.5729 -0.7961 -0.1953
vn -0.7696 -0.6382 -0.0199
vn -0.6439 -0.7639 -0.0441
vn -0.8866 -0.4625 0.0096
vn 0.2392 -0.1465 0.9599
vn -0.0597 -0.1359 0.9889
vn -0.0081 -0.3957 0.9183
vn 0.2244 -0.3320 0.9162
vn 0.0262 -0.5506 0.8344
vn 0.1995 -0.5321 0.8229
vn 0.4413 -0.3427 0.8293
vn 0.3624 -0.4984 0.7876
vn 0.5164 -0.1439 0.8442
vn -0.3156 0.6412 0.6994
vn -0.0295 0.6157 0.7874
vn -0.0227 0.8066 0.5907
vn -0.2612 0.7755 0.5747
vn -0.0173 0.8992 0.4371
vn -0.1884 0.8957 0.4027
vn -0.4608 0.7630 0.4534
vn -0.3497 0.8660 0.3574
vn -0.5733 0.6089 0.5483
vn -0.4059 0.6598 0.6324
vn -0.4165 0.6811 0.6023
vn -0.4402 0.7297 0.5233
vn -0.2858 0.5282 0.7996
vn -0.3364 0.5654 0.7531
vn -0.0629 0.3721 0.9261
vn -0.1507 0.4323 0.8890
vn -0.1455 0.4289 0.8916
vn -0.4472 -0.6110 0.6532
vn -0.4169 -0.6344 0.6509
vn -0.3388 -0.6887 0.6410
vn -0.6400 -0.4673 0.6100
vn -0.5792 -0.5079 0.6376
vn -0.8374 -0.3022 0.4555
vn -0.7712 -0.3650 0.5216
vn -0.7754 -0.3614 0.5178
vn -0.6444 -0.6492 -0.4041
vn -0.6411 -0.6709 -0.3727
vn -0.6286 -0.7208 -0.2920
vn -0.6076 -0.5148 -0.6048
vn -0.6334 -0.5528 -0.5415
vn -0.4603 -0.3566 -0.8130
vn -0.5238 -0.4175 -0.7425
vn -0.5202 -0.4140 -0.7470
vn -0.7387 0.3775 0.5584
vn -0.7390 0.4084 0.5357
vn -0.7352 0.4829 0.4757
vn -0.6798 0.1932 0.7075
vn -0.7116 0.2450 0.6585
vn -0.5078 0.0012 0.8614
vn -0.5807 0.0709 0.8110
vn -0.5766 0.0668 0.8143
vn -0.9528 0.2928 -0.0805
vn -0.9406 0.3256 -0.0963
vn -0.9042 0.4052 -0.1350
vn -0.9931 0.0989 0.0624
vn -0.9881 0.1534 0.0066
vn -0.9534 -0.0980 0.2854
vn -0.9791 -0.0275 0.2013
vn -0.9780 -0.0317 0.2064
vn -0.1406 -0.5344 0.8334
vn -0.2040 -0.6229 0.7552
vn -0.1590 -0.5608 0.8125
vn 0.0189 -0.3748 0.9269
vn -0.0417 -0.4198 0.9067
vn 0.2611 -0.1983 0.9447
vn 0.1753 -0.2604 0.9494
vn 0.1698 -0.2643 0.9494
vn 0.0416 -0.6530 -0.7562
vn 0.0359 -0.7852 -0.6182
vn -0.1923 -0.8151 -0.5464
vn -0.2570 -0.6272 -0.7352
vn 0.0302 -0.9025 -0.4296
vn -0.1418 -0.9056 -0.3998
vn 0.2658 -0.7720 -0.5773
vn 0.1969 -0.8731 -0.4461
vn 0.3364 -0.6199 -0.7089
vn 0.9231 -0.3743 -0.0888
vn 0.8351 -0.5439 -0.0821
vn 0.7454 -0.5954 -0.2998
vn 0.8533 -0.3566 -0.3805
vn 0.6950 -0.7157 -0.0680
vn 0.6440 -0.7282 -0.2345
vn 0.8249 -0.5446 0.1516
vn 0.7244 -0.6826 0.0962
vn 0.9095 -0.3582 0.2109
vn -0.6702 -0.5052 0.5438
vn -0.5830 -0.6602 0.4735
vn -0.3824 -0.7026 0.6001
vn -0.4522 -0.4836 0.7494
vn -0.4569 -0.8097 0.3683
vn -0.3208 -0.8181 0.4773
vn -0.7047 -0.6546 0.2738
vn -0.5762 -0.7778 0.2512
vn -0.8276 -0.4812 0.2890
vn 0.8270 0.4853 0.2840
vn 0.7243 0.6428 0.2493
vn 0.5804 0.6867 0.4377
vn 0.6927 0.4642 0.5520
vn 0.5729 0.7961 0.1953
vn 0.4828 0.8051 0.3445
vn 0.7696 0.6382 0.0199
vn 0.6439 0.7639 0.0441
vn 0.8866 0.4625 -0.0096
vn -0.2392 0.1465 -0.9599
vn -0.2244 0.3320 -0.9162
vn 0.0081 0.3957 -0.9183
vn 0.0597 0.1359 -0.9889
vn -0.1995 0.5321 -0.8229
vn -0.0262 0.5506 -0.8344
vn -0.4413 0.3427 -0.8293
vn -0.3624 0.4984 -0.7876
vn -0.5164 0.1439 -0.8442
vn 0.3156 -0.6412 -0.6994
vn 0.2612 -0.7755 -0.5747
vn 0.0227 -0.8066 -0.5907
vn 0.0295 -0.6157 -0.7874
vn 0.1884 -0.8957 -0.4027
vn 0.0173 -0.8992 -0.4371
vn 0.4608 -0.7630 -0.4534
vn 0.3497 -0.8660 -0.3574
vn 0.5733 -0.6089 -0.5483
vn 0.4059 -0.6598 -0.6324
vn 0.4402 -0.7297 -0.5233
vn 0.4165 -0.6811 -0.6023
vn 0.2858 -0.5282 -0.7996
vn 0.3364 -0.5654 -0.7531
vn 0.0629 -0.3721 -0.9261
vn 0.1455 -0.4289 -0.8916
vn 0.1507 -0.4323 -0.8890
vn 0.4472 0.6110 -0.6532
vn 0.3388 0.6887 -0.6410
vn 0.4169 0.6344 -0.6509
vn 0.6400 0.4673 -0.6100
vn 0.5792 0.5079 -0.6376
vn 0.8374 0.3022 -0.4555
vn 0.7754 0.3614 -0.5178
vn 0.7712 0.3650 -0.5216
vn 0.6444 0.6492 0.4041
vn 0.6286 0.7208 0.2920
vn 0.6411 0.6709 0.3727
vn 0.6076 0.5148 0.6048
vn 0.6334 0.5528 0.5415
vn 0.4603 0.3566 0.8130
vn 0.5202 0.4140 0.7470
vn 0.5238 0.4175 0.7425
vn 0.7387 -0.3775 -0.5584
vn 0.7352 -0.4829 -0.4757
vn 0.7390 -0.4084 -0.5357
vn 0.6798 -0.1932 -0.7075
vn 0.7116 -0.2450 -0.6585
vn 0.5078 -0.0012 -0.8614
vn 0.5766 -0.0668 -0.8143
vn 0.5807 -0.0709 -0.8110
vn 0.9528 -0.2928 0.0805
vn 0.9042 -0.4052 0.1350
vn 0.9406 -0.3256 0.0963
vn 0.9931 -0.0989 -0.0624
vn 0.9881 -0.1534 -0.0066
vn 0.9534 0.0980 -0.2854
vn 0.9780 0.0317 -0.2064
vn 0.9791 0.0275 -0.2013
s 1
f 6/1/1 5/2/2 2/3/3 3/4/3
f 10/5/4 9/6/5 5/2/2 6/1/1
f 4/7/6 1/8/6 7/9/7 8/10/8
f 8/10/8 7/9/7 9/6/5 10/5/4
f 17/11/9 19/12/10 12/13/11 11/14/12
f 11/14/12 12/13/11 16/15/13 18/16/14
f 14/17/15 11/14/12 18/16/14 15/18/16
f 13/19/17 17/11/9 11/14/12 14/17/15
f 26/20/18 28/21/19 21/22/20 20/23/21
f 20/23/21 21/22/20 25/24/22 27/25/23
f 23/26/24 20/23/21 27/25/23 24/27/25
f 22/28/26 26/20/18 20/23/21 23/26/24
f 35/29/27 37/30/28 30/31/29 29/32/30
f 29/32/30 30/31/29 34/33/31 36/34/32
f 32/35/33 29/32/30 36/34/32 33/36/34
f 31/37/35 35/29/27 29/32/30 32/35/33
f 44/38/36 46/39/37 39/40/38 38/41/39
f 38/41/39 39/40/38 43/42/40 45/43/41
f 41/44/42 38/41/39 45/43/41 42/45/43
f 40/46/44 44/38/36 38/41/39 41/44/42
f 53/47/45 55/48/46 48/49/47 47/50/48
f 47/50/48 48/49/47 52/51/49 54/52/50
f 50/53/51 47/50/48 54/52/50 51/54/52
f 49/55/53 53/47/45 47/50/48 50/53/51
f 62/56/54 64/57/55 57/58/56 56/59/57
f 56/59/57 57/58/56 61/60/58 63/61/59
f 59/62/60 56/59/57 63/61/59 60/63/61
f 58/64/62 62/56/54 56/59/57 59/62/60
f 70/65/63 69/66/64 66/67/65 67/68/65
f 74/69/66 73/70/67 69/66/64 70/65/63
f 68/71/68 65/72/68 71/73/69 72/74/70
f 72/74/70 71/73/69 73/70/67 74/69/66
f 80/75/71 79/76/72 76/77/73 77/78/73
f 84/79/74 83/80/75 79/76/72 80/75/71
f 78/81/76 75/82/76 81/83/77 82/84/78
f 82/84/78 81/83/77 83/80/75 84/79/74
f 90/85/79 89/86/80 86/87/81 87/88/81
f 94/89/82 93/90/83 89/86/80 90/85/79
f 88/91/84 85/92/84 91/93/85 92/94/86
f 92/94/86 91/93/85 93/90/83 94/89/82
f 100/95/87 99/96/88 96/97/89 97/98/89
f 104/99/90 103/100/91 99/96/88 100/95/87
f 98/101/92 95/102/92 101/103/93 102/104/94
f 102/104/94 101/103/93 103/100/91 104/99/90
f 110/105/95 109/106/96 106/107/97 107/108/97
f 114/109/98 113/110/99 109/106/96 110/105/95
f 108/111/100 105/112/100 111/113/101 112/114/102
f 112/114/102 111/113/101 113/110/99 114/109/98
f 120/115/103 117/116/104 116/117/104 119/118/105
f 124/119/106 120/115/103 119/118/105 123/120/107
f 118/121/108 122/122/109 121/123/110 115/124/108
f 122/122/109 124/119/106 123/120/107 121/123/110
f 131/125/111 125/126/112 126/127/113 133/128/114
f 125/126/112 132/129/115 130/130/116 126/127/113
f 128/131/117 129/132/118 132/129/115 125/126/112
f 127/133/119 128/131/117 125/126/112 131/125/111
f 140/134/120 134/135/121 135/136/122 142/137/123
f 134/135/121 141/138/124 139/139/125 135/136/122
f 137/140/126 138/141/127 141/138/124 134/135/121
f 136/142/128 137/140/126 134/135/121 140/134/120
f 149/143/129 143/144/130 144/145/131 151/146/132
f 143/144/130 150/147/133 148/148/134 144/145/131
f 146/149/135 147/150/136 150/147/133 143/144/130
f 145/151/137 146/149/135 143/144/130 149/143/129
f 158/152/138 152/153/139 153/154/140 160/155/141
f 152/153/139 159/156/142 157/157/143 153/154/140
f 155/158/144 156/159/145 159/156/142 152/153/139
f 154/160/146 155/158/144 152/153/139 158/152/138
f 167/161/147 161/162/148 162/163/149 169/164/150
f 161/162/148 168/165/151 166/166/152 162/163/149
f 164/167/153 165/168/154 168/165/151 161/162/148
f 163/169/155 164/167/153 161/162/148 167/161/147
f 176/170/156 170/171/157 171/172/158 178/173/159
f 170/171/157 177/174/160 175/175/161 171/172/158
f 173/176/162 174/177/163 177/174/160 170/171/157
f 172/178/164 173/176/162 170/171/157 176/170/156
f 184/179/165 181/180/166 180/181/166 183/182/167
f 188/183/168 184/179/165 183/182/167 187/184/169
f 182/185/170 186/186/171 185/187/172 179/188/170
f 186/186/171 188/183/168 187/184/169 185/187/172
f 194/189/173 191/190/174 190/191/174 193/192/175
f 198/193/176 194/189/173 193/192/175 197/194/177
f 192/195/178 196/196/179 195/197/180 189/198/178
f 196/196/179 198/193/176 197/194/177 195/197/180
f 204/199/181 201/200/182 200/201/182 203/202/183
f 208/203/184 204/199/181 203/202/183 207/204/185
f 202/205/186 206/206/187 205/207/188 199/208/186
f 206/206/187 208/203/184 207/204/185 205/207/188
f 214/209/189 211/210/190 210/211/190 213/212/191
f 218/213/192 214/209/189 213/212/191 217/214/193
f 212/215/194 216/216/195 215/217/196 209/218/194
f 216/216/195 218/213/192 217/214/193 215/217/196
f 224/219/197 221/220/198 220/221/198 223/222/199
f 228/223/200 224/219/197 223/222/199 227/224/201
f 222/225/202 226/226/203 225/227/204 219/228/202
f 226/226/203 228/223/200 227/224/201 225/227/204
