# Blender v2.80 (sub 41) OBJ File: 'swamp.blend'
# www.blender.org
o SM_Grass_08_Plane.998
v -0.054711 0.148374 0.023922
v -0.006489 0.000600 0.009171
v -0.057995 0.148374 0.015595
v -0.012231 0.000600 -0.005392
v -0.025496 0.074972 0.013079
v -0.029449 0.074972 0.003053
v -0.089133 0.003167 0.019305
v 0.072694 0.003167 0.019305
v -0.089133 0.168071 0.206589
v 0.072694 0.168071 0.206589
v -0.008219 0.018266 0.002738
v -0.008219 0.174534 0.199497
v -0.089133 0.111739 0.098877
v 0.072694 0.111739 0.098877
v -0.008219 0.126839 0.082311
v -0.037828 -0.015320 -0.074865
v 0.007413 -0.015320 0.077254
v -0.267900 0.032361 -0.006441
v -0.222659 0.032361 0.145678
v -0.008863 0.005642 -0.000692
v -0.242564 0.041334 0.068811
v -0.153750 0.037602 -0.040389
v -0.108509 0.037602 0.111730
v -0.124785 0.058564 0.033783
v -0.027640 -0.025598 -0.045965
v 0.072286 0.018240 0.069273
v 0.096783 0.111494 -0.206008
v 0.196709 0.155332 -0.090769
v 0.008263 0.012036 0.017867
v 0.140728 0.140140 -0.145729
v 0.021263 0.068765 -0.124268
v 0.121190 0.112603 -0.009030
v 0.057167 0.106399 -0.060436
v -0.061139 0.014398 0.043278
v 0.032351 -0.019955 -0.052739
v -0.182003 0.105562 -0.107023
v -0.088514 0.071209 -0.203039
v -0.004223 0.012883 -0.000431
v -0.130905 0.095090 -0.153190
v -0.113166 0.083908 -0.032250
v -0.019677 0.049555 -0.128266
v -0.056251 0.082393 -0.075958
v 0.028271 -0.007805 -0.039160
v -0.037768 -0.007805 0.081010
v 0.196152 0.081697 0.053100
v 0.130113 0.081697 0.173269
v -0.013404 0.008418 0.016168
v 0.159427 0.088641 0.111148
v 0.107636 0.061537 0.004455
v 0.041597 0.061537 0.124625
v 0.065961 0.077760 0.059783
v -0.093831 -0.004866 -0.008180
v 0.060241 -0.004866 0.041311
v -0.162739 0.102376 0.206341
v -0.008666 0.102376 0.255832
v -0.013189 0.014197 0.005338
v -0.084159 0.110536 0.226281
v -0.126337 0.077732 0.093016
v 0.027735 0.077732 0.142507
v -0.045695 0.096795 0.106535
v 0.074989 -0.017755 0.012586
v -0.068191 -0.017755 0.004819
v 0.086869 0.010119 -0.206436
v -0.056311 0.010119 -0.214203
v 0.003147 0.001555 0.013343
v 0.015171 0.018385 -0.208333
v 0.081073 0.022336 -0.099584
v -0.062107 0.022336 -0.107351
v 0.009231 0.041646 -0.098827
v -0.076056 0.002165 0.060101
v 0.057453 0.002165 0.007795
v 0.002783 0.048824 0.261337
v 0.136293 0.048824 0.209031
v -0.011597 0.021004 0.028089
v 0.068555 0.056888 0.232676
v -0.036491 0.051781 0.161092
v 0.097019 0.051780 0.108786
v 0.027969 0.070619 0.129080
v 0.005325 -0.008966 -0.054790
v 0.028785 -0.008965 0.080308
v 0.209378 0.033616 -0.090223
v 0.232838 0.033616 0.044875
v 0.011301 0.009107 0.013758
v 0.218645 0.041352 -0.022247
v 0.107973 0.037456 -0.072614
v 0.131433 0.037456 0.062484
v 0.113949 0.055529 -0.004066
v 0.064377 0.200154 0.017245
v 0.007797 0.000808 -0.008184
v 0.060422 0.200154 0.028542
v 0.000880 0.000808 0.011570
v 0.027878 0.100909 0.003573
v 0.023115 0.100909 0.017174
v -0.005865 0.221593 -0.089618
v -0.011943 0.000902 0.002667
v 0.007854 0.221593 -0.089618
v 0.012046 0.000902 0.002667
v -0.006830 0.112617 -0.034321
v 0.009686 0.112617 -0.034321
v -0.054711 0.148374 0.023922
v -0.006489 0.000600 0.009171
v -0.057995 0.148374 0.015595
v -0.012231 0.000600 -0.005392
v -0.025496 0.074972 0.013079
v -0.029449 0.074972 0.003053
v -0.089133 0.003167 0.019305
v 0.072694 0.003167 0.019305
v -0.089133 0.168071 0.206589
v 0.072694 0.168071 0.206589
v -0.008219 0.018266 0.002738
v -0.008219 0.174534 0.199497
v -0.089133 0.111739 0.098877
v 0.072694 0.111739 0.098877
v -0.008219 0.126839 0.082311
v -0.037828 -0.015320 -0.074865
v 0.007413 -0.015320 0.077254
v -0.267900 0.032361 -0.006441
v -0.222659 0.032361 0.145678
v -0.008863 0.005642 -0.000692
v -0.242564 0.041334 0.068811
v -0.153750 0.037602 -0.040389
v -0.108509 0.037602 0.111730
v -0.124785 0.058564 0.033783
v -0.027640 -0.025598 -0.045965
v 0.072286 0.018240 0.069273
v 0.096783 0.111494 -0.206008
v 0.196709 0.155332 -0.090769
v 0.008263 0.012036 0.017867
v 0.140728 0.140140 -0.145729
v 0.021263 0.068765 -0.124268
v 0.121190 0.112603 -0.009030
v 0.057167 0.106399 -0.060436
v -0.061139 0.014398 0.043278
v 0.032351 -0.019955 -0.052739
v -0.182003 0.105562 -0.107023
v -0.088514 0.071209 -0.203039
v -0.004223 0.012883 -0.000431
v -0.130905 0.095090 -0.153190
v -0.113166 0.083908 -0.032250
v -0.019677 0.049555 -0.128266
v -0.056251 0.082393 -0.075958
v 0.028271 -0.007805 -0.039160
v -0.037768 -0.007805 0.081010
v 0.196152 0.081697 0.053100
v 0.130113 0.081697 0.173269
v -0.013404 0.008418 0.016168
v 0.159427 0.088641 0.111148
v 0.107636 0.061537 0.004455
v 0.041597 0.061537 0.124625
v 0.065961 0.077760 0.059783
v -0.093831 -0.004866 -0.008180
v 0.060241 -0.004866 0.041311
v -0.162739 0.102376 0.206341
v -0.008666 0.102376 0.255832
v -0.013189 0.014197 0.005338
v -0.084159 0.110536 0.226281
v -0.126337 0.077732 0.093016
v 0.027735 0.077732 0.142507
v -0.045695 0.096795 0.106535
v 0.074989 -0.017755 0.012586
v -0.068191 -0.017755 0.004819
v 0.086869 0.010119 -0.206436
v -0.056311 0.010119 -0.214203
v 0.003147 0.001555 0.013343
v 0.015171 0.018385 -0.208333
v 0.081073 0.022336 -0.099584
v -0.062107 0.022336 -0.107351
v 0.009231 0.041646 -0.098827
v -0.076056 0.002165 0.060101
v 0.057453 0.002165 0.007795
v 0.002783 0.048824 0.261337
v 0.136293 0.048824 0.209031
v -0.011597 0.021004 0.028089
v 0.068555 0.056888 0.232676
v -0.036491 0.051781 0.161092
v 0.097019 0.051780 0.108786
v 0.027969 0.070619 0.129080
v 0.005325 -0.008966 -0.054790
v 0.028785 -0.008965 0.080308
v 0.209378 0.033616 -0.090223
v 0.232838 0.033616 0.044875
v 0.011301 0.009107 0.013758
v 0.218645 0.041352 -0.022247
v 0.107973 0.037456 -0.072614
v 0.131433 0.037456 0.062484
v 0.113949 0.055529 -0.004066
v 0.064377 0.200154 0.017245
v 0.007797 0.000808 -0.008184
v 0.060422 0.200154 0.028542
v 0.000880 0.000808 0.011570
v 0.027878 0.100909 0.003573
v 0.023115 0.100909 0.017174
v -0.005865 0.221593 -0.089618
v -0.011943 0.000902 0.002667
v 0.007854 0.221593 -0.089618
v 0.012046 0.000902 0.002667
v -0.006830 0.112617 -0.034321
v 0.009686 0.112617 -0.034321
vt 0.348093 0.719766
vt 0.362016 0.719766
vt 0.360471 0.821624
vt 0.348907 0.821624
vt 0.343783 0.620566
vt 0.364005 0.620566
vt 0.407471 0.473341
vt 0.486823 0.473341
vt 0.486823 0.604603
vt 0.407471 0.604603
vt 0.328119 0.473341
vt 0.328119 0.604603
vt 0.328119 0.342078
vt 0.407471 0.342078
vt 0.486823 0.342078
vt 0.407471 0.473341
vt 0.486823 0.473341
vt 0.486823 0.604603
vt 0.407471 0.604603
vt 0.328119 0.473341
vt 0.328119 0.604603
vt 0.328119 0.342078
vt 0.407471 0.342078
vt 0.486823 0.342078
vt 0.407471 0.473341
vt 0.486823 0.473341
vt 0.486823 0.604603
vt 0.407471 0.604603
vt 0.328119 0.473341
vt 0.328119 0.604603
vt 0.328119 0.342078
vt 0.407471 0.342078
vt 0.486823 0.342078
vt 0.407471 0.473341
vt 0.486823 0.473341
vt 0.486823 0.604603
vt 0.407471 0.604603
vt 0.328119 0.473341
vt 0.328119 0.604603
vt 0.328119 0.342078
vt 0.407471 0.342078
vt 0.486823 0.342078
vt 0.407471 0.473341
vt 0.486823 0.473341
vt 0.486823 0.604603
vt 0.407471 0.604603
vt 0.328119 0.473341
vt 0.328119 0.604603
vt 0.328119 0.342078
vt 0.407471 0.342078
vt 0.486823 0.342078
vt 0.407471 0.473341
vt 0.486823 0.473341
vt 0.486823 0.604603
vt 0.407471 0.604603
vt 0.328119 0.473341
vt 0.328119 0.604603
vt 0.328119 0.342078
vt 0.407471 0.342078
vt 0.486823 0.342078
vt 0.292147 0.925402
vt 0.292147 1.000059
vt 0.168650 1.000059
vt 0.168650 0.925402
vt 0.292147 0.850745
vt 0.168650 0.850745
vt 0.415644 0.850745
vt 0.415644 0.925402
vt 0.415644 1.000059
vt 0.292147 0.925402
vt 0.292147 1.000059
vt 0.168650 1.000059
vt 0.168650 0.925402
vt 0.292147 0.850745
vt 0.168650 0.850745
vt 0.415644 0.850745
vt 0.415644 0.925402
vt 0.415644 1.000059
vt 0.407471 0.473341
vt 0.486823 0.473341
vt 0.486823 0.604603
vt 0.407471 0.604603
vt 0.328119 0.473341
vt 0.328119 0.604603
vt 0.328119 0.342078
vt 0.407471 0.342078
vt 0.486823 0.342078
vt 0.348093 0.719766
vt 0.362016 0.719766
vt 0.360471 0.821624
vt 0.348907 0.821624
vt 0.343783 0.620566
vt 0.364005 0.620566
vt 0.348093 0.719766
vt 0.362016 0.719766
vt 0.360471 0.821624
vt 0.348907 0.821624
vt 0.343783 0.620566
vt 0.364005 0.620566
vt 0.348093 0.719766
vt 0.348907 0.821624
vt 0.360471 0.821624
vt 0.362016 0.719766
vt 0.343783 0.620566
vt 0.364005 0.620566
vt 0.407471 0.473341
vt 0.407471 0.604603
vt 0.486823 0.604603
vt 0.486823 0.473341
vt 0.328119 0.473341
vt 0.328119 0.604603
vt 0.328119 0.342078
vt 0.407471 0.342078
vt 0.486823 0.342078
vt 0.407471 0.473341
vt 0.407471 0.604603
vt 0.486823 0.604603
vt 0.486823 0.473341
vt 0.328119 0.473341
vt 0.328119 0.604603
vt 0.328119 0.342078
vt 0.407471 0.342078
vt 0.486823 0.342078
vt 0.407471 0.473341
vt 0.407471 0.604603
vt 0.486823 0.604603
vt 0.486823 0.473341
vt 0.328119 0.473341
vt 0.328119 0.604603
vt 0.328119 0.342078
vt 0.407471 0.342078
vt 0.486823 0.342078
vt 0.407471 0.473341
vt 0.407471 0.604603
vt 0.486823 0.604603
vt 0.486823 0.473341
vt 0.328119 0.473341
vt 0.328119 0.604603
vt 0.328119 0.342078
vt 0.407471 0.342078
vt 0.486823 0.342078
vt 0.407471 0.473341
vt 0.407471 0.604603
vt 0.486823 0.604603
vt 0.486823 0.473341
vt 0.328119 0.473341
vt 0.328119 0.604603
vt 0.328119 0.342078
vt 0.407471 0.342078
vt 0.486823 0.342078
vt 0.407471 0.473341
vt 0.407471 0.604603
vt 0.486823 0.604603
vt 0.486823 0.473341
vt 0.328119 0.473341
vt 0.328119 0.604603
vt 0.328119 0.342078
vt 0.407471 0.342078
vt 0.486823 0.342078
vt 0.292147 0.925402
vt 0.168650 0.925402
vt 0.168650 1.000059
vt 0.292147 1.000059
vt 0.292147 0.850745
vt 0.168650 0.850745
vt 0.415644 0.850745
vt 0.415644 0.925402
vt 0.415644 1.000059
vt 0.292147 0.925402
vt 0.168650 0.925402
vt 0.168650 1.000059
vt 0.292147 1.000059
vt 0.292147 0.850745
vt 0.168650 0.850745
vt 0.415644 0.850745
vt 0.415644 0.925402
vt 0.415644 1.000059
vt 0.407471 0.473341
vt 0.407471 0.604603
vt 0.486823 0.604603
vt 0.486823 0.473341
vt 0.328119 0.473341
vt 0.328119 0.604603
vt 0.328119 0.342078
vt 0.407471 0.342078
vt 0.486823 0.342078
vt 0.348093 0.719766
vt 0.348907 0.821624
vt 0.360471 0.821624
vt 0.362016 0.719766
vt 0.343783 0.620566
vt 0.364005 0.620566
vt 0.348093 0.719766
vt 0.348907 0.821624
vt 0.360471 0.821624
vt 0.362016 0.719766
vt 0.343783 0.620566
vt 0.364005 0.620566
vn 0.8815 0.3196 -0.3476
vn 0.8814 0.3199 -0.3475
vn 0.8563 0.3907 -0.3377
vn 0.9010 0.2489 -0.3553
vn 0.0000 0.7708 -0.6370
vn 0.2287 0.7581 -0.6107
vn 0.2656 0.5699 -0.7776
vn -0.0000 0.5911 -0.8066
vn -0.2287 0.7581 -0.6107
vn -0.2656 0.5699 -0.7776
vn -0.1794 0.8929 -0.4130
vn -0.0000 0.9076 -0.4198
vn 0.1794 0.8929 -0.4130
vn 0.1573 0.9865 -0.0468
vn 0.2068 0.9622 0.1771
vn 0.4462 0.8832 0.1444
vn 0.3843 0.9161 -0.1143
vn 0.0764 0.9622 -0.2613
vn 0.2948 0.8832 -0.3647
vn -0.1383 0.9796 -0.1460
vn -0.0886 0.9957 0.0264
vn -0.0361 0.9796 0.1978
vn 0.5712 -0.7981 -0.1917
vn 0.4056 -0.8466 -0.3447
vn 0.4911 -0.6927 -0.5281
vn 0.6829 -0.6425 -0.3477
vn 0.6937 -0.7202 -0.0125
vn 0.8256 -0.5460 -0.1424
vn 0.5245 -0.8439 0.1132
vn 0.4184 -0.9081 -0.0173
vn 0.2986 -0.9429 -0.1473
vn -0.4536 -0.8823 -0.1260
vn -0.5890 -0.8069 0.0447
vn -0.7407 -0.6642 -0.1010
vn -0.5822 -0.7573 -0.2959
vn -0.2799 -0.9205 -0.2728
vn -0.3818 -0.7960 -0.4696
vn -0.1648 -0.9841 -0.0668
vn -0.2907 -0.9550 0.0586
vn -0.4072 -0.8950 0.1821
vn 0.3460 -0.9188 0.1901
vn 0.4371 -0.8992 -0.0208
vn 0.6416 -0.7655 0.0496
vn 0.5328 -0.7940 0.2928
vn 0.2168 -0.8992 0.3801
vn 0.3858 -0.7655 0.5150
vn 0.0411 -0.9730 0.2272
vn 0.1296 -0.9890 0.0712
vn 0.2138 -0.9730 -0.0871
vn 0.1227 0.9159 -0.3821
vn 0.3338 0.8965 -0.2914
vn 0.4338 0.7613 -0.4820
vn 0.1877 0.7896 -0.5842
vn -0.1017 0.8965 -0.4313
vn -0.0719 0.7613 -0.6444
vn -0.1242 0.9719 -0.1999
vn 0.0474 0.9879 -0.1475
vn 0.2174 0.9719 -0.0902
vn -0.0051 0.9955 0.0948
vn -0.2327 0.9702 0.0679
vn -0.2827 0.9080 0.3092
vn -0.0182 0.9418 0.3356
vn 0.2240 0.9702 0.0926
vn 0.2476 0.9080 0.3380
vn 0.1877 0.9709 -0.1490
vn 0.0088 0.9869 -0.1613
vn -0.1705 0.9709 -0.1684
vn -0.0658 0.9836 -0.1679
vn 0.1533 0.9596 -0.2358
vn 0.1010 0.8767 -0.4703
vn -0.1517 0.9094 -0.3873
vn -0.2726 0.9596 -0.0689
vn -0.3936 0.8767 -0.2765
vn -0.1397 0.9809 0.1350
vn 0.0277 0.9971 0.0708
vn 0.1943 0.9809 0.0042
vn 0.1681 -0.9853 -0.0292
vn 0.1127 -0.9612 -0.2517
vn 0.3412 -0.8806 -0.3288
vn 0.4010 -0.9134 -0.0696
vn 0.1910 -0.9612 0.1990
vn 0.4320 -0.8806 0.1945
vn -0.0525 -0.9802 0.1912
vn -0.0845 -0.9963 0.0147
vn -0.1139 -0.9802 -0.1623
vn -0.9022 0.2936 -0.3159
vn -0.9021 0.2940 -0.3159
vn -0.8785 0.3655 -0.3076
vn -0.9202 0.2224 -0.3222
vn 0.0000 0.3834 0.9236
vn 0.0000 0.3837 0.9235
vn 0.0000 0.4525 0.8918
vn 0.0000 0.3143 0.9493
vn -0.8815 -0.3196 0.3476
vn -0.8563 -0.3907 0.3377
vn -0.8814 -0.3199 0.3475
vn -0.9010 -0.2489 0.3553
vn 0.0000 -0.7708 0.6370
vn 0.0000 -0.5911 0.8066
vn -0.2656 -0.5699 0.7776
vn -0.2287 -0.7581 0.6107
vn 0.2287 -0.7581 0.6107
vn 0.2656 -0.5699 0.7776
vn 0.1794 -0.8929 0.4130
vn 0.0000 -0.9076 0.4198
vn -0.1794 -0.8929 0.4130
vn -0.1573 -0.9865 0.0468
vn -0.3843 -0.9161 0.1143
vn -0.4462 -0.8832 -0.1444
vn -0.2068 -0.9622 -0.1771
vn -0.0764 -0.9622 0.2613
vn -0.2948 -0.8832 0.3647
vn 0.1383 -0.9796 0.1460
vn 0.0886 -0.9957 -0.0264
vn 0.0361 -0.9796 -0.1978
vn -0.5712 0.7981 0.1917
vn -0.6829 0.6425 0.3477
vn -0.4911 0.6927 0.5281
vn -0.4056 0.8466 0.3447
vn -0.6937 0.7202 0.0125
vn -0.8256 0.5460 0.1424
vn -0.5245 0.8439 -0.1132
vn -0.4184 0.9081 0.0173
vn -0.2986 0.9429 0.1473
vn 0.4536 0.8823 0.1260
vn 0.5822 0.7573 0.2959
vn 0.7407 0.6642 0.1010
vn 0.5890 0.8069 -0.0447
vn 0.2799 0.9205 0.2728
vn 0.3818 0.7960 0.4696
vn 0.1648 0.9841 0.0668
vn 0.2907 0.9550 -0.0586
vn 0.4072 0.8950 -0.1821
vn -0.3460 0.9188 -0.1901
vn -0.5328 0.7940 -0.2928
vn -0.6416 0.7655 -0.0496
vn -0.4371 0.8992 0.0208
vn -0.2168 0.8992 -0.3801
vn -0.3858 0.7655 -0.5150
vn -0.0411 0.9730 -0.2272
vn -0.1296 0.9890 -0.0712
vn -0.2138 0.9730 0.0871
vn -0.1227 -0.9159 0.3821
vn -0.1877 -0.7896 0.5842
vn -0.4338 -0.7613 0.4820
vn -0.3338 -0.8965 0.2914
vn 0.1017 -0.8965 0.4313
vn 0.0719 -0.7613 0.6444
vn 0.1242 -0.9719 0.1999
vn -0.0474 -0.9879 0.1475
vn -0.2174 -0.9719 0.0902
vn 0.0051 -0.9955 -0.0948
vn 0.0182 -0.9418 -0.3356
vn 0.2827 -0.9080 -0.3092
vn 0.2327 -0.9702 -0.0679
vn -0.2240 -0.9702 -0.0926
vn -0.2476 -0.9080 -0.3380
vn -0.1877 -0.9709 0.1490
vn -0.0088 -0.9869 0.1613
vn 0.1705 -0.9709 0.1684
vn 0.0658 -0.9836 0.1679
vn 0.1517 -0.9094 0.3873
vn -0.1010 -0.8767 0.4703
vn -0.1533 -0.9596 0.2358
vn 0.2726 -0.9596 0.0689
vn 0.3936 -0.8767 0.2765
vn 0.1397 -0.9809 -0.1350
vn -0.0277 -0.9971 -0.0708
vn -0.1943 -0.9809 -0.0042
vn -0.1681 0.9853 0.0292
vn -0.4010 0.9134 0.0696
vn -0.3412 0.8806 0.3288
vn -0.1127 0.9612 0.2517
vn -0.1910 0.9612 -0.1990
vn -0.4320 0.8806 -0.1945
vn 0.0525 0.9802 -0.1912
vn 0.0845 0.9963 -0.0147
vn 0.1139 0.9802 0.1623
vn 0.9022 -0.2936 0.3159
vn 0.8785 -0.3655 0.3076
vn 0.9021 -0.2940 0.3159
vn 0.9202 -0.2224 0.3222
vn -0.0000 -0.3834 -0.9236
vn 0.0000 -0.4525 -0.8918
vn -0.0000 -0.3837 -0.9235
vn -0.0000 -0.3143 -0.9493
s 1
f 5/1/1 6/2/2 3/3/3 1/4/3
f 2/5/4 4/6/4 6/2/2 5/1/1
f 15/7/5 14/8/6 8/9/7 11/10/8
f 13/11/9 15/7/5 11/10/8 7/12/10
f 9/13/11 12/14/12 15/7/5 13/11/9
f 12/14/12 10/15/13 14/8/6 15/7/5
f 24/16/14 23/17/15 17/18/16 20/19/17
f 22/20/18 24/16/14 20/19/17 16/21/19
f 18/22/20 21/23/21 24/16/14 22/20/18
f 21/23/21 19/24/22 23/17/15 24/16/14
f 33/25/23 32/26/24 26/27/25 29/28/26
f 31/29/27 33/25/23 29/28/26 25/30/28
f 27/31/29 30/32/30 33/25/23 31/29/27
f 30/32/30 28/33/31 32/26/24 33/25/23
f 42/34/32 41/35/33 35/36/34 38/37/35
f 40/38/36 42/34/32 38/37/35 34/39/37
f 36/40/38 39/41/39 42/34/32 40/38/36
f 39/41/39 37/42/40 41/35/33 42/34/32
f 51/43/41 50/44/42 44/45/43 47/46/44
f 49/47/45 51/43/41 47/46/44 43/48/46
f 45/49/47 48/50/48 51/43/41 49/47/45
f 48/50/48 46/51/49 50/44/42 51/43/41
f 60/52/50 59/53/51 53/54/52 56/55/53
f 58/56/54 60/52/50 56/55/53 52/57/55
f 54/58/56 57/59/57 60/52/50 58/56/54
f 57/59/57 55/60/58 59/53/51 60/52/50
f 69/61/59 68/62/60 62/63/61 65/64/62
f 67/65/63 69/61/59 65/64/62 61/66/64
f 63/67/65 66/68/66 69/61/59 67/65/63
f 66/68/66 64/69/67 68/62/60 69/61/59
f 78/70/68 77/71/69 71/72/70 74/73/71
f 76/74/72 78/70/68 74/73/71 70/75/73
f 72/76/74 75/77/75 78/70/68 76/74/72
f 75/77/75 73/78/76 77/71/69 78/70/68
f 87/79/77 86/80/78 80/81/79 83/82/80
f 85/83/81 87/79/77 83/82/80 79/84/82
f 81/85/83 84/86/84 87/79/77 85/83/81
f 84/86/84 82/87/85 86/80/78 87/79/77
f 92/88/86 93/89/87 90/90/88 88/91/88
f 89/92/89 91/93/89 93/89/87 92/88/86
f 98/94/90 99/95/91 96/96/92 94/97/92
f 95/98/93 97/99/93 99/95/91 98/94/90
f 104/100/94 100/101/95 102/102/95 105/103/96
f 101/104/97 104/100/94 105/103/96 103/105/97
f 114/106/98 110/107/99 107/108/100 113/109/101
f 112/110/102 106/111/103 110/107/99 114/106/98
f 108/112/104 112/110/102 114/106/98 111/113/105
f 111/113/105 114/106/98 113/109/101 109/114/106
f 123/115/107 119/116/108 116/117/109 122/118/110
f 121/119/111 115/120/112 119/116/108 123/115/107
f 117/121/113 121/119/111 123/115/107 120/122/114
f 120/122/114 123/115/107 122/118/110 118/123/115
f 132/124/116 128/125/117 125/126/118 131/127/119
f 130/128/120 124/129/121 128/125/117 132/124/116
f 126/130/122 130/128/120 132/124/116 129/131/123
f 129/131/123 132/124/116 131/127/119 127/132/124
f 141/133/125 137/134/126 134/135/127 140/136/128
f 139/137/129 133/138/130 137/134/126 141/133/125
f 135/139/131 139/137/129 141/133/125 138/140/132
f 138/140/132 141/133/125 140/136/128 136/141/133
f 150/142/134 146/143/135 143/144/136 149/145/137
f 148/146/138 142/147/139 146/143/135 150/142/134
f 144/148/140 148/146/138 150/142/134 147/149/141
f 147/149/141 150/142/134 149/145/137 145/150/142
f 159/151/143 155/152/144 152/153/145 158/154/146
f 157/155/147 151/156/148 155/152/144 159/151/143
f 153/157/149 157/155/147 159/151/143 156/158/150
f 156/158/150 159/151/143 158/154/146 154/159/151
f 168/160/152 164/161/153 161/162/154 167/163/155
f 166/164/156 160/165/157 164/161/153 168/160/152
f 162/166/158 166/164/156 168/160/152 165/167/159
f 165/167/159 168/160/152 167/163/155 163/168/160
f 177/169/161 173/170/162 170/171/163 176/172/164
f 175/173/165 169/174/166 173/170/162 177/169/161
f 171/175/167 175/173/165 177/169/161 174/176/168
f 174/176/168 177/169/161 176/172/164 172/177/169
f 186/178/170 182/179/171 179/180/172 185/181/173
f 184/182/174 178/183/175 182/179/171 186/178/170
f 180/184/176 184/182/174 186/178/170 183/185/177
f 183/185/177 186/178/170 185/181/173 181/186/178
f 191/187/179 187/188/180 189/189/180 192/190/181
f 188/191/182 191/187/179 192/190/181 190/192/182
f 197/193/183 193/194/184 195/195/184 198/196/185
f 194/197/186 197/193/183 198/196/185 196/198/186
