# Blender v2.80 (sub 41) OBJ File: 'swamp.blend'
# www.blender.org
o SM_Grass_05_Plane.959
v -0.237111 0.597475 0.247894
v -0.230194 0.597475 0.254387
v -0.107077 -0.000000 0.120021
v -0.086895 -0.000000 0.138965
v -0.129015 0.167996 0.138062
v -0.112905 0.167996 0.153183
v -0.210095 0.381042 0.202050
v -0.182958 0.381042 0.227521
v 0.017668 1.338126 -0.270305
v 0.063842 1.341528 -0.271917
v 0.078645 0.000000 -0.060107
v 0.100666 0.000000 -0.066667
v 0.055732 0.453834 -0.070164
v 0.023259 0.898739 -0.148505
v 0.070381 0.453902 -0.071444
v 0.075797 0.905184 -0.144315
v -0.195059 1.138207 0.279879
v -0.166524 1.138716 0.306447
v -0.157725 -0.000000 0.206241
v -0.140618 -0.000000 0.215261
v -0.207158 0.374677 0.265547
v -0.222055 0.755378 0.278000
v -0.197568 0.374155 0.273353
v -0.193306 0.756935 0.312180
v 0.257632 1.346014 0.359867
v 0.215418 1.350454 0.380944
v 0.040322 0.000000 0.105135
v 0.022513 0.000000 0.120475
v 0.090606 0.461354 0.133590
v 0.177757 0.907916 0.221038
v 0.077478 0.461671 0.140928
v 0.127357 0.916074 0.239576
v -0.279159 1.286266 -0.465582
v -0.312513 1.291318 -0.434106
v -0.075318 0.000000 -0.108531
v -0.095235 0.000000 -0.097261
v -0.099283 0.444727 -0.189481
v -0.164634 0.870697 -0.322678
v -0.110340 0.445226 -0.179891
v -0.198480 0.879825 -0.283085
v -0.128005 1.100531 0.430561
v -0.088871 1.104853 0.427708
v -0.070268 -0.000000 0.083644
v -0.050967 -0.000000 0.086932
v -0.098115 0.380506 0.150263
v -0.126745 0.744967 0.273905
v -0.085598 0.380933 0.149877
v -0.082898 0.752776 0.265934
v 0.121452 1.022652 -0.114466
v 0.089243 1.024448 -0.128144
v 0.075350 -0.000000 -0.053318
v 0.061637 -0.000000 -0.063994
v 0.075828 0.343007 -0.030430
v 0.102055 0.683787 -0.053337
v 0.065861 0.342864 -0.035363
v 0.063657 0.687388 -0.064536
v -0.325715 1.272026 0.260808
v -0.347278 1.277095 0.220819
v -0.017099 -0.000000 -0.016297
v -0.032310 -0.000000 -0.033111
v -0.066800 0.440149 0.054065
v -0.171646 0.861335 0.160566
v -0.074207 0.440660 0.041598
v -0.191155 0.870481 0.112807
v 0.062954 0.789802 -0.005120
v 0.066484 0.789802 0.006372
v 0.115597 -0.000000 -0.011620
v 0.125898 -0.000000 0.021909
v 0.074067 0.211719 -0.003697
v 0.082290 0.211719 0.023066
v 0.092661 0.510027 -0.029725
v 0.106512 0.510027 0.015356
v -0.183205 0.376708 -0.528275
v -0.187209 0.376708 -0.526732
v -0.060232 0.000000 -0.221993
v -0.077753 0.000000 -0.215241
v -0.139848 0.327887 -0.418144
v -0.151458 0.327887 -0.413670
v -0.090602 0.191660 -0.305858
v -0.101340 0.191660 -0.301720
v 0.108888 0.956598 -0.379875
v 0.101575 0.956598 -0.383822
v 0.040565 0.000000 -0.234451
v 0.008563 0.000000 -0.251723
v 0.041321 0.755700 -0.251185
v 0.020115 0.755700 -0.262630
v 0.020814 0.406574 -0.190446
v 0.001200 0.406574 -0.201032
v 0.178042 0.763892 -0.408763
v 0.188213 0.763892 -0.402620
v 0.098514 0.000000 -0.259413
v 0.128191 0.000000 -0.241489
v 0.104271 0.212527 -0.277783
v 0.127959 0.212527 -0.263475
v 0.142981 0.488558 -0.379000
v 0.182882 0.488558 -0.354900
v -0.186391 0.376669 -0.000559
v -0.189500 0.376669 0.000366
v -0.194011 -0.000000 -0.038414
v -0.207617 -0.000000 -0.034366
v -0.200475 0.294758 -0.050171
v -0.209491 0.294758 -0.047489
v -0.200951 0.157170 -0.066559
v -0.209290 0.157170 -0.064078
v 0.216777 0.700382 0.418166
v 0.223060 0.700382 0.408929
v 0.035768 -0.000000 0.284650
v 0.054101 -0.000000 0.257698
v 0.063146 0.197325 0.308469
v 0.077779 0.197325 0.286955
v 0.155447 0.446431 0.393078
v 0.180096 0.446431 0.356840
v -0.237111 0.597475 0.247894
v -0.230194 0.597475 0.254387
v -0.107077 -0.000000 0.120021
v -0.086895 -0.000000 0.138965
v -0.129015 0.167996 0.138062
v -0.112905 0.167996 0.153183
v -0.210095 0.381042 0.202050
v -0.182958 0.381042 0.227521
v 0.017668 1.338126 -0.270305
v 0.063842 1.341528 -0.271917
v 0.078645 0.000000 -0.060107
v 0.100666 0.000000 -0.066667
v 0.055732 0.453834 -0.070164
v 0.023259 0.898739 -0.148505
v 0.070381 0.453902 -0.071444
v 0.075797 0.905184 -0.144315
v -0.195059 1.138207 0.279879
v -0.166524 1.138716 0.306447
v -0.157725 -0.000000 0.206241
v -0.140618 -0.000000 0.215261
v -0.207158 0.374677 0.265547
v -0.222055 0.755378 0.278000
v -0.197568 0.374155 0.273353
v -0.193306 0.756935 0.312180
v 0.257632 1.346014 0.359867
v 0.215418 1.350454 0.380944
v 0.040322 0.000000 0.105135
v 0.022513 0.000000 0.120475
v 0.090606 0.461354 0.133590
v 0.177757 0.907916 0.221038
v 0.077478 0.461671 0.140928
v 0.127357 0.916074 0.239576
v -0.279159 1.286266 -0.465582
v -0.312513 1.291318 -0.434106
v -0.075318 0.000000 -0.108531
v -0.095235 0.000000 -0.097261
v -0.099283 0.444727 -0.189481
v -0.164634 0.870697 -0.322678
v -0.110340 0.445226 -0.179891
v -0.198480 0.879825 -0.283085
v -0.128005 1.100531 0.430561
v -0.088871 1.104853 0.427708
v -0.070268 -0.000000 0.083644
v -0.050967 -0.000000 0.086932
v -0.098115 0.380506 0.150263
v -0.126745 0.744967 0.273905
v -0.085598 0.380933 0.149877
v -0.082898 0.752776 0.265934
v 0.121452 1.022652 -0.114466
v 0.089243 1.024448 -0.128144
v 0.075350 -0.000000 -0.053318
v 0.061637 -0.000000 -0.063994
v 0.075828 0.343007 -0.030430
v 0.102055 0.683787 -0.053337
v 0.065861 0.342864 -0.035363
v 0.063657 0.687388 -0.064536
v -0.325715 1.272026 0.260808
v -0.347278 1.277095 0.220819
v -0.017099 -0.000000 -0.016297
v -0.032310 -0.000000 -0.033111
v -0.066800 0.440149 0.054065
v -0.171646 0.861335 0.160566
v -0.074207 0.440660 0.041598
v -0.191155 0.870481 0.112807
v 0.062954 0.789802 -0.005120
v 0.066484 0.789802 0.006372
v 0.115597 -0.000000 -0.011620
v 0.125898 -0.000000 0.021909
v 0.074067 0.211719 -0.003697
v 0.082290 0.211719 0.023066
v 0.092661 0.510027 -0.029725
v 0.106512 0.510027 0.015356
v -0.183205 0.376708 -0.528275
v -0.187209 0.376708 -0.526732
v -0.060232 0.000000 -0.221993
v -0.077753 0.000000 -0.215241
v -0.139848 0.327887 -0.418144
v -0.151458 0.327887 -0.413670
v -0.090602 0.191660 -0.305858
v -0.101340 0.191660 -0.301720
v 0.108888 0.956598 -0.379875
v 0.101575 0.956598 -0.383822
v 0.040565 0.000000 -0.234451
v 0.008563 0.000000 -0.251723
v 0.041321 0.755700 -0.251185
v 0.020115 0.755700 -0.262630
v 0.020814 0.406574 -0.190446
v 0.001200 0.406574 -0.201032
v 0.178042 0.763892 -0.408763
v 0.188213 0.763892 -0.402620
v 0.098514 0.000000 -0.259413
v 0.128191 0.000000 -0.241489
v 0.104271 0.212527 -0.277783
v 0.127959 0.212527 -0.263475
v 0.142981 0.488558 -0.379000
v 0.182882 0.488558 -0.354900
v -0.186391 0.376669 -0.000559
v -0.189500 0.376669 0.000366
v -0.194011 -0.000000 -0.038414
v -0.207617 -0.000000 -0.034366
v -0.200475 0.294758 -0.050171
v -0.209491 0.294758 -0.047489
v -0.200951 0.157170 -0.066559
v -0.209290 0.157170 -0.064078
v 0.216777 0.700382 0.418166
v 0.223060 0.700382 0.408929
v 0.035768 -0.000000 0.284650
v 0.054101 -0.000000 0.257698
v 0.063146 0.197325 0.308469
v 0.077779 0.197325 0.286955
v 0.155447 0.446431 0.393078
v 0.180096 0.446431 0.356840
vt 0.676773 0.297104
vt 0.704246 0.297104
vt 0.692395 0.461100
vt 0.685392 0.461100
vt 0.690779 0.000000
vt 0.711212 0.000000
vt 0.704396 0.124682
vt 0.688085 0.124682
vt 0.786668 0.391429
vt 0.809551 0.392390
vt 0.820112 0.588584
vt 0.800095 0.588584
vt 0.799629 0.000000
vt 0.809556 0.000000
vt 0.797485 0.196195
vt 0.791131 0.196195
vt 0.786668 0.391429
vt 0.809551 0.392390
vt 0.820112 0.588584
vt 0.800095 0.588584
vt 0.799629 0.000000
vt 0.809556 0.000000
vt 0.797485 0.196195
vt 0.791131 0.196195
vt 0.786668 0.391429
vt 0.809551 0.392390
vt 0.820112 0.588584
vt 0.800095 0.588584
vt 0.799629 0.000000
vt 0.809556 0.000000
vt 0.797485 0.196195
vt 0.791131 0.196195
vt 0.786668 0.391429
vt 0.809551 0.392390
vt 0.820112 0.588584
vt 0.800095 0.588584
vt 0.799629 0.000000
vt 0.809556 0.000000
vt 0.797485 0.196195
vt 0.791131 0.196195
vt 0.786668 0.391429
vt 0.809551 0.392390
vt 0.820112 0.588584
vt 0.800095 0.588584
vt 0.799629 0.000000
vt 0.809556 0.000000
vt 0.797485 0.196195
vt 0.791131 0.196195
vt 0.786668 0.391429
vt 0.809551 0.392390
vt 0.820112 0.588584
vt 0.800095 0.588584
vt 0.799629 0.000000
vt 0.809556 0.000000
vt 0.797485 0.196195
vt 0.791131 0.196195
vt 0.786668 0.391429
vt 0.809551 0.392390
vt 0.820112 0.588584
vt 0.800095 0.588584
vt 0.799629 0.000000
vt 0.809556 0.000000
vt 0.797485 0.196195
vt 0.791131 0.196195
vt 0.676773 0.297104
vt 0.704246 0.297104
vt 0.692395 0.461100
vt 0.685392 0.461100
vt 0.690779 0.000000
vt 0.711212 0.000000
vt 0.704396 0.124682
vt 0.688085 0.124682
vt 0.631806 0.417905
vt 0.644984 0.417905
vt 0.644075 0.553320
vt 0.639531 0.553320
vt 0.638703 0.223878
vt 0.650891 0.223878
vt 0.629080 0.000000
vt 0.648967 0.000000
vt 0.631806 0.417905
vt 0.644984 0.417905
vt 0.644075 0.553320
vt 0.639531 0.553320
vt 0.638703 0.223878
vt 0.650891 0.223878
vt 0.629080 0.000000
vt 0.648967 0.000000
vt 0.676773 0.297104
vt 0.704246 0.297104
vt 0.692395 0.461100
vt 0.685392 0.461100
vt 0.690779 0.000000
vt 0.711212 0.000000
vt 0.704396 0.124682
vt 0.688085 0.124682
vt 0.631806 0.417905
vt 0.644984 0.417905
vt 0.644075 0.553320
vt 0.639531 0.553320
vt 0.638703 0.223878
vt 0.650891 0.223878
vt 0.629080 0.000000
vt 0.648967 0.000000
vt 0.676773 0.297104
vt 0.704246 0.297104
vt 0.692395 0.461100
vt 0.685392 0.461100
vt 0.690779 0.000000
vt 0.711212 0.000000
vt 0.704396 0.124682
vt 0.688085 0.124682
vt 0.676773 0.297104
vt 0.685392 0.461100
vt 0.692395 0.461100
vt 0.704246 0.297104
vt 0.690779 0.000000
vt 0.688085 0.124682
vt 0.704396 0.124682
vt 0.711212 0.000000
vt 0.786668 0.391429
vt 0.800095 0.588584
vt 0.820112 0.588584
vt 0.809551 0.392390
vt 0.799629 0.000000
vt 0.791131 0.196195
vt 0.797485 0.196195
vt 0.809556 0.000000
vt 0.786668 0.391429
vt 0.800095 0.588584
vt 0.820112 0.588584
vt 0.809551 0.392390
vt 0.799629 0.000000
vt 0.791131 0.196195
vt 0.797485 0.196195
vt 0.809556 0.000000
vt 0.786668 0.391429
vt 0.800095 0.588584
vt 0.820112 0.588584
vt 0.809551 0.392390
vt 0.799629 0.000000
vt 0.791131 0.196195
vt 0.797485 0.196195
vt 0.809556 0.000000
vt 0.786668 0.391429
vt 0.800095 0.588584
vt 0.820112 0.588584
vt 0.809551 0.392390
vt 0.799629 0.000000
vt 0.791131 0.196195
vt 0.797485 0.196195
vt 0.809556 0.000000
vt 0.786668 0.391429
vt 0.800095 0.588584
vt 0.820112 0.588584
vt 0.809551 0.392390
vt 0.799629 0.000000
vt 0.791131 0.196195
vt 0.797485 0.196195
vt 0.809556 0.000000
vt 0.786668 0.391429
vt 0.800095 0.588584
vt 0.820112 0.588584
vt 0.809551 0.392390
vt 0.799629 0.000000
vt 0.791131 0.196195
vt 0.797485 0.196195
vt 0.809556 0.000000
vt 0.786668 0.391429
vt 0.800095 0.588584
vt 0.820112 0.588584
vt 0.809551 0.392390
vt 0.799629 0.000000
vt 0.791131 0.196195
vt 0.797485 0.196195
vt 0.809556 0.000000
vt 0.676773 0.297104
vt 0.685392 0.461100
vt 0.692395 0.461100
vt 0.704246 0.297104
vt 0.690779 0.000000
vt 0.688085 0.124682
vt 0.704396 0.124682
vt 0.711212 0.000000
vt 0.631806 0.417905
vt 0.639531 0.553320
vt 0.644075 0.553320
vt 0.644984 0.417905
vt 0.638703 0.223878
vt 0.650891 0.223878
vt 0.629080 0.000000
vt 0.648967 0.000000
vt 0.631806 0.417905
vt 0.639531 0.553320
vt 0.644075 0.553320
vt 0.644984 0.417905
vt 0.638703 0.223878
vt 0.650891 0.223878
vt 0.629080 0.000000
vt 0.648967 0.000000
vt 0.676773 0.297104
vt 0.685392 0.461100
vt 0.692395 0.461100
vt 0.704246 0.297104
vt 0.690779 0.000000
vt 0.688085 0.124682
vt 0.704396 0.124682
vt 0.711212 0.000000
vt 0.631806 0.417905
vt 0.639531 0.553320
vt 0.644075 0.553320
vt 0.644984 0.417905
vt 0.638703 0.223878
vt 0.650891 0.223878
vt 0.629080 0.000000
vt 0.648967 0.000000
vt 0.676773 0.297104
vt 0.685392 0.461100
vt 0.692395 0.461100
vt 0.704246 0.297104
vt 0.690779 0.000000
vt 0.688085 0.124682
vt 0.704396 0.124682
vt 0.711212 0.000000
vn -0.6450 -0.3343 0.6872
vn -0.6443 -0.3370 0.6865
vn -0.6655 -0.2333 0.7090
vn -0.6750 -0.1654 0.7191
vn -0.6530 -0.2995 0.6957
vn -0.6517 -0.3055 0.6943
vn -0.0556 0.2167 0.9746
vn -0.0553 0.2221 0.9735
vn -0.0523 0.2726 0.9607
vn 0.2089 0.0282 0.9775
vn 0.0773 0.0967 0.9923
vn 0.0719 0.0995 0.9924
vn -0.7333 -0.0026 0.6799
vn -0.7329 0.0029 0.6804
vn -0.7274 0.0546 0.6841
vn -0.5248 -0.2041 0.8264
vn -0.6370 -0.1320 0.7595
vn -0.6412 -0.1290 0.7564
vn -0.3345 0.2909 -0.8964
vn -0.3340 0.2962 -0.8948
vn -0.3289 0.3456 -0.8789
vn -0.5870 0.1094 -0.8022
vn -0.4693 0.1758 -0.8653
vn -0.4643 0.1784 -0.8675
vn -0.7202 -0.3491 -0.5995
vn -0.7188 -0.3543 -0.5982
vn -0.7039 -0.4025 -0.5853
vn -0.5520 -0.1741 -0.8155
vn -0.6491 -0.2385 -0.7224
vn -0.6527 -0.2410 -0.7182
vn 0.1797 -0.3490 0.9197
vn 0.1794 -0.3542 0.9178
vn 0.1760 -0.4025 0.8984
vn -0.0871 -0.1741 0.9809
vn 0.0470 -0.2384 0.9700
vn 0.0524 -0.2409 0.9691
vn 0.3119 -0.1358 -0.9404
vn 0.3121 -0.1412 -0.9395
vn 0.3130 -0.1925 -0.9301
vn 0.5491 0.0589 -0.8337
vn 0.4356 -0.0115 -0.9001
vn 0.4308 -0.0143 -0.9023
vn 0.8709 0.3542 -0.3407
vn 0.8691 0.3593 -0.3400
vn 0.8507 0.4075 -0.3321
vn 0.7800 0.1798 -0.5994
vn 0.8426 0.2440 -0.4802
vn 0.8447 0.2465 -0.4751
vn -0.9557 -0.0213 0.2936
vn -0.9557 -0.0183 0.2936
vn -0.9482 -0.1263 0.2913
vn -0.9376 -0.1947 0.2881
vn -0.9543 -0.0579 0.2932
vn -0.9546 -0.0516 0.2933
vn 0.2079 0.8159 0.5395
vn 0.2082 0.8153 0.5403
vn 0.1371 0.9244 0.3558
vn 0.3001 0.5510 0.7787
vn 0.3002 0.5504 0.7791
vn 0.3260 0.4219 0.8460
vn -0.4373 0.3904 0.8102
vn -0.4375 0.3894 0.8105
vn -0.3848 0.5861 0.7130
vn -0.4747 0.0303 0.8796
vn -0.4747 0.0296 0.8796
vn -0.4717 -0.1175 0.8739
vn -0.4993 0.2594 0.8267
vn -0.4989 0.2623 0.8260
vn -0.5106 0.1564 0.8454
vn -0.5150 0.0877 0.8527
vn -0.5039 0.2239 0.8343
vn -0.5031 0.2300 0.8330
vn 0.2692 -0.3303 0.9047
vn 0.2693 -0.3293 0.9050
vn 0.2413 -0.5328 0.8111
vn 0.2850 0.0341 0.9579
vn 0.2850 0.0348 0.9579
vn 0.2804 0.1812 0.9426
vn 0.7752 -0.3479 0.5273
vn 0.7744 -0.3506 0.5267
vn 0.8012 -0.2473 0.5450
vn 0.8134 -0.1796 0.5533
vn 0.7852 -0.3133 0.5341
vn 0.7836 -0.3192 0.5330
vn 0.6450 0.3343 -0.6872
vn 0.6655 0.2333 -0.7090
vn 0.6443 0.3370 -0.6865
vn 0.6750 0.1654 -0.7191
vn 0.6517 0.3055 -0.6943
vn 0.6530 0.2995 -0.6957
vn 0.0556 -0.2167 -0.9746
vn 0.0523 -0.2726 -0.9607
vn 0.0553 -0.2221 -0.9735
vn -0.2089 -0.0282 -0.9775
vn -0.0719 -0.0995 -0.9924
vn -0.0773 -0.0967 -0.9923
vn 0.7333 0.0026 -0.6799
vn 0.7274 -0.0546 -0.6841
vn 0.7329 -0.0029 -0.6804
vn 0.5248 0.2041 -0.8264
vn 0.6412 0.1290 -0.7564
vn 0.6370 0.1320 -0.7595
vn 0.3345 -0.2909 0.8964
vn 0.3289 -0.3456 0.8789
vn 0.3340 -0.2962 0.8948
vn 0.5870 -0.1094 0.8022
vn 0.4643 -0.1784 0.8675
vn 0.4693 -0.1758 0.8653
vn 0.7202 0.3491 0.5995
vn 0.7039 0.4025 0.5853
vn 0.7188 0.3543 0.5982
vn 0.5520 0.1741 0.8155
vn 0.6527 0.2410 0.7182
vn 0.6491 0.2385 0.7224
vn -0.1797 0.3490 -0.9197
vn -0.1760 0.4025 -0.8984
vn -0.1794 0.3542 -0.9178
vn 0.0871 0.1741 -0.9809
vn -0.0524 0.2409 -0.9691
vn -0.0470 0.2384 -0.9700
vn -0.3119 0.1358 0.9404
vn -0.3130 0.1925 0.9301
vn -0.3121 0.1412 0.9395
vn -0.5491 -0.0589 0.8337
vn -0.4308 0.0143 0.9023
vn -0.4356 0.0115 0.9001
vn -0.8709 -0.3542 0.3407
vn -0.8507 -0.4075 0.3321
vn -0.8691 -0.3593 0.3400
vn -0.7800 -0.1798 0.5994
vn -0.8447 -0.2465 0.4751
vn -0.8426 -0.2440 0.4802
vn 0.9557 0.0213 -0.2936
vn 0.9482 0.1263 -0.2913
vn 0.9557 0.0183 -0.2936
vn 0.9376 0.1947 -0.2881
vn 0.9546 0.0516 -0.2933
vn 0.9543 0.0579 -0.2932
vn -0.2079 -0.8159 -0.5395
vn -0.1371 -0.9244 -0.3558
vn -0.2082 -0.8153 -0.5403
vn -0.3001 -0.5510 -0.7787
vn -0.3002 -0.5504 -0.7791
vn -0.3260 -0.4219 -0.8460
vn 0.4373 -0.3904 -0.8102
vn 0.3848 -0.5861 -0.7130
vn 0.4375 -0.3894 -0.8105
vn 0.4747 -0.0303 -0.8796
vn 0.4747 -0.0296 -0.8796
vn 0.4717 0.1175 -0.8739
vn 0.4993 -0.2594 -0.8267
vn 0.5106 -0.1564 -0.8454
vn 0.4989 -0.2623 -0.8260
vn 0.5150 -0.0877 -0.8527
vn 0.5031 -0.2300 -0.8330
vn 0.5039 -0.2239 -0.8343
vn -0.2692 0.3303 -0.9047
vn -0.2413 0.5328 -0.8111
vn -0.2693 0.3293 -0.9050
vn -0.2850 -0.0341 -0.9579
vn -0.2850 -0.0348 -0.9579
vn -0.2804 -0.1812 -0.9426
vn -0.7752 0.3479 -0.5273
vn -0.8012 0.2473 -0.5450
vn -0.7744 0.3506 -0.5267
vn -0.8134 0.1796 -0.5533
vn -0.7836 0.3192 -0.5330
vn -0.7852 0.3133 -0.5341
s 1
f 7/1/1 8/2/2 2/3/3 1/4/3
f 3/5/4 4/6/4 6/7/5 5/8/6
f 5/8/6 6/7/5 8/2/2 7/1/1
f 14/9/7 16/10/8 10/11/9 9/12/9
f 11/13/10 12/14/10 15/15/11 13/16/12
f 13/16/12 15/15/11 16/10/8 14/9/7
f 22/17/13 24/18/14 18/19/15 17/20/15
f 19/21/16 20/22/16 23/23/17 21/24/18
f 21/24/18 23/23/17 24/18/14 22/17/13
f 30/25/19 32/26/20 26/27/21 25/28/21
f 27/29/22 28/30/22 31/31/23 29/32/24
f 29/32/24 31/31/23 32/26/20 30/25/19
f 38/33/25 40/34/26 34/35/27 33/36/27
f 35/37/28 36/38/28 39/39/29 37/40/30
f 37/40/30 39/39/29 40/34/26 38/33/25
f 46/41/31 48/42/32 42/43/33 41/44/33
f 43/45/34 44/46/34 47/47/35 45/48/36
f 45/48/36 47/47/35 48/42/32 46/41/31
f 54/49/37 56/50/38 50/51/39 49/52/39
f 51/53/40 52/54/40 55/55/41 53/56/42
f 53/56/42 55/55/41 56/50/38 54/49/37
f 62/57/43 64/58/44 58/59/45 57/60/45
f 59/61/46 60/62/46 63/63/47 61/64/48
f 61/64/48 63/63/47 64/58/44 62/57/43
f 71/65/49 72/66/50 66/67/51 65/68/51
f 67/69/52 68/70/52 70/71/53 69/72/54
f 69/72/54 70/71/53 72/66/50 71/65/49
f 78/73/55 77/74/56 73/75/57 74/76/57
f 80/77/58 79/78/59 77/74/56 78/73/55
f 76/79/60 75/80/60 79/78/59 80/77/58
f 86/81/61 85/82/62 81/83/63 82/84/63
f 88/85/64 87/86/65 85/82/62 86/81/61
f 84/87/66 83/88/66 87/86/65 88/85/64
f 95/89/67 96/90/68 90/91/69 89/92/69
f 91/93/70 92/94/70 94/95/71 93/96/72
f 93/96/72 94/95/71 96/90/68 95/89/67
f 102/97/73 101/98/74 97/99/75 98/100/75
f 104/101/76 103/102/77 101/98/74 102/97/73
f 100/103/78 99/104/78 103/102/77 104/101/76
f 111/105/79 112/106/80 106/107/81 105/108/81
f 107/109/82 108/110/82 110/111/83 109/112/84
f 109/112/84 110/111/83 112/106/80 111/105/79
f 119/113/85 113/114/86 114/115/86 120/116/87
f 115/117/88 117/118/89 118/119/90 116/120/88
f 117/118/89 119/113/85 120/116/87 118/119/90
f 126/121/91 121/122/92 122/123/92 128/124/93
f 123/125/94 125/126/95 127/127/96 124/128/94
f 125/126/95 126/121/91 128/124/93 127/127/96
f 134/129/97 129/130/98 130/131/98 136/132/99
f 131/133/100 133/134/101 135/135/102 132/136/100
f 133/134/101 134/129/97 136/132/99 135/135/102
f 142/137/103 137/138/104 138/139/104 144/140/105
f 139/141/106 141/142/107 143/143/108 140/144/106
f 141/142/107 142/137/103 144/140/105 143/143/108
f 150/145/109 145/146/110 146/147/110 152/148/111
f 147/149/112 149/150/113 151/151/114 148/152/112
f 149/150/113 150/145/109 152/148/111 151/151/114
f 158/153/115 153/154/116 154/155/116 160/156/117
f 155/157/118 157/158/119 159/159/120 156/160/118
f 157/158/119 158/153/115 160/156/117 159/159/120
f 166/161/121 161/162/122 162/163/122 168/164/123
f 163/165/124 165/166/125 167/167/126 164/168/124
f 165/166/125 166/161/121 168/164/123 167/167/126
f 174/169/127 169/170/128 170/171/128 176/172/129
f 171/173/130 173/174/131 175/175/132 172/176/130
f 173/174/131 174/169/127 176/172/129 175/175/132
f 183/177/133 177/178/134 178/179/134 184/180/135
f 179/181/136 181/182/137 182/183/138 180/184/136
f 181/182/137 183/177/133 184/180/135 182/183/138
f 190/185/139 186/186/140 185/187/140 189/188/141
f 192/189/142 190/185/139 189/188/141 191/190/143
f 188/191/144 192/189/142 191/190/143 187/192/144
f 198/193/145 194/194/146 193/195/146 197/196/147
f 200/197/148 198/193/145 197/196/147 199/198/149
f 196/199/150 200/197/148 199/198/149 195/200/150
f 207/201/151 201/202/152 202/203/152 208/204/153
f 203/205/154 205/206/155 206/207/156 204/208/154
f 205/206/155 207/201/151 208/204/153 206/207/156
f 214/209/157 210/210/158 209/211/158 213/212/159
f 216/213/160 214/209/157 213/212/159 215/214/161
f 212/215/162 216/213/160 215/214/161 211/216/162
f 223/217/163 217/218/164 218/219/164 224/220/165
f 219/221/166 221/222/167 222/223/168 220/224/166
f 221/222/167 223/217/163 224/220/165 222/223/168
