# Blender v2.80 (sub 41) OBJ File: 'swamp.blend'
# www.blender.org
o SM_Small_Rock_02_Group5248.016
v -0.083952 0.085306 0.087887
v -0.073716 0.083229 0.000469
v -0.029200 0.041728 0.076972
v -0.093409 0.127467 0.003803
v -0.100127 0.112304 0.116014
v -0.092975 0.175539 -0.067684
v -0.063958 0.177479 -0.022970
v -0.004232 0.187243 -0.112015
v 0.047605 0.173092 -0.214407
v 0.007643 0.136653 -0.226510
v 0.007995 0.173286 -0.213841
v 0.066385 0.077751 0.094289
v 0.065319 0.124632 0.052254
v -0.025659 0.107657 0.143130
v 0.012967 0.061452 -0.200630
v 0.052269 0.069419 -0.174186
v 0.051764 0.042760 -0.071801
v 0.095839 0.084380 0.038203
v 0.084185 0.084242 -0.085060
v 0.068477 0.173003 -0.079200
v 0.086866 0.197873 -0.129956
v 0.085778 0.181137 -0.170728
v 0.043407 0.203835 -0.174133
v -0.060206 0.114782 -0.180420
v -0.084962 0.172066 -0.144704
v -0.042633 0.178959 -0.186228
v -0.015747 0.204930 -0.158120
v -0.069694 0.184346 -0.144783
v -0.021839 0.067945 0.157184
v -0.014998 0.040232 0.151732
v 0.072245 0.042068 0.094970
v 0.043043 0.034333 -0.002298
v -0.035260 0.063001 -0.072715
v 0.081185 0.048525 -0.002707
v 0.065453 0.025322 0.061301
v 0.060087 0.154552 -0.213424
v 0.068397 0.112750 -0.200881
v 0.097196 0.158253 -0.168937
v 0.082125 0.197838 -0.096936
v 0.094109 0.102024 -0.108615
v -0.047717 0.142729 0.121414
v -0.060531 0.159023 0.100240
v -0.090503 0.142693 0.119069
v -0.095437 0.141112 0.029710
v -0.074980 0.109049 0.151826
v -0.064265 0.076986 0.168593
v -0.035972 0.095086 -0.201720
v 0.054656 0.144240 0.011075
v 0.081548 0.122760 0.004714
v 0.055450 0.177432 -0.045058
v 0.046001 0.186824 -0.076449
v 0.027208 0.177945 -0.019728
v -0.075530 0.156689 0.066009
v -0.084744 0.160416 -0.001578
v 0.021404 0.157861 0.000598
v 0.096149 0.120542 -0.168984
v 0.065970 0.046400 -0.063183
v 0.004041 0.189623 -0.152514
v 0.057266 0.209748 -0.128429
v -0.005657 0.155016 0.050395
v 0.076936 0.029016 0.027921
v 0.096167 0.067253 0.036204
v 0.017500 0.207134 -0.186330
v -0.017470 0.198119 -0.194229
v -0.091591 0.156090 -0.128624
v -0.074233 0.103890 -0.140951
v -0.048167 0.075398 -0.141426
v -0.105482 0.154971 -0.037162
v -0.032146 0.059983 -0.018815
v -0.093857 0.115411 -0.008513
v 0.028437 0.031149 0.014720
v 0.009522 0.027249 0.090810
v -0.087681 0.076904 0.141346
v -0.040451 0.042780 0.152934
v -0.089602 0.088634 0.158424
v 0.018862 0.158625 0.026340
vt 0.837808 0.326043
vt 0.829556 0.307416
vt 0.848451 0.315834
vt 0.819167 0.311849
vt 0.834656 0.336300
vt 0.511103 0.775206
vt 0.515797 0.765886
vt 0.529432 0.782523
vt 0.538408 0.804128
vt 0.530575 0.811398
vt 0.531533 0.803894
vt 0.542174 0.730040
vt 0.540560 0.743409
vt 0.519737 0.727576
vt 0.834179 0.266940
vt 0.841471 0.266695
vt 0.849892 0.283780
vt 0.872551 0.296388
vt 0.856526 0.274818
vt 0.872537 0.263918
vt 0.548692 0.788154
vt 0.546797 0.797241
vt 0.538034 0.795041
vt 0.819468 0.270812
vt 0.804808 0.276203
vt 0.808167 0.261650
vt 0.527843 0.792023
vt 0.516436 0.790251
vt 0.861576 0.329473
vt 0.858666 0.324543
vt 0.866424 0.309353
vt 0.853503 0.296763
vt 0.833715 0.289948
vt 0.861182 0.292661
vt 0.861592 0.305214
vt 0.825500 0.253121
vt 0.839872 0.246852
vt 0.841929 0.256903
vt 0.854641 0.250816
vt 0.872949 0.256478
vt 0.856244 0.268447
vt 0.516031 0.735653
vt 0.514336 0.740655
vt 0.508858 0.737324
vt 0.506065 0.753413
vt 0.503028 0.735444
vt 0.509606 0.728115
vt 0.854310 0.336618
vt 0.825491 0.267438
vt 0.539771 0.753233
vt 0.547216 0.751583
vt 0.540900 0.766886
vt 0.540272 0.774490
vt 0.534233 0.762937
vt 0.511708 0.746831
vt 0.509874 0.760719
vt 0.532689 0.757260
vt 0.850278 0.258381
vt 0.853172 0.283932
vt 0.531701 0.790025
vt 0.542138 0.786748
vt 0.525749 0.747958
vt 0.551477 0.740794
vt 0.861152 0.299341
vt 0.868661 0.297606
vt 0.533314 0.796826
vt 0.527595 0.798365
vt 0.807367 0.281176
vt 0.819328 0.279175
vt 0.826901 0.278324
vt 0.505950 0.769255
vt 0.809526 0.303875
vt 0.872949 0.310718
vt 0.837951 0.299687
vt 0.820770 0.307989
vt 0.502547 0.758393
vt 0.852466 0.300863
vt 0.856255 0.313930
vt 0.845875 0.334947
vt 0.855175 0.327046
vt 0.867609 0.250997
vt 0.548323 0.780504
vt 0.521105 0.718547
vt 0.510386 0.719597
vt 0.512401 0.790733
vt 0.504956 0.724511
vt 0.546340 0.773015
vt 0.521682 0.798851
vt 0.847684 0.340325
vt 0.551477 0.800263
vt 0.531206 0.752126
vt 0.508639 0.787785
vt 0.541476 0.807117
vn -0.7902 -0.6026 -0.1121
vn -0.7359 -0.6740 -0.0643
vn -0.4602 -0.8822 -0.1000
vn -0.9907 -0.0989 0.0935
vn -0.9954 -0.0347 0.0893
vn -0.6048 0.7962 0.0160
vn -0.1713 0.9282 0.3303
vn -0.1191 0.9803 0.1575
vn 0.3237 0.4751 -0.8182
vn -0.1314 -0.0139 -0.9912
vn -0.1515 0.4429 -0.8837
vn 0.6898 0.3185 0.6502
vn 0.6202 0.6680 0.4113
vn 0.3774 0.5132 0.7708
vn -0.0025 -0.7797 -0.6261
vn 0.5620 -0.7357 -0.3779
vn 0.0991 -0.9825 -0.1576
vn 0.9629 0.1993 0.1818
vn 0.9794 -0.1879 0.0738
vn 0.7782 0.3954 0.4879
vn 0.7709 0.6359 -0.0351
vn 0.6940 0.5641 -0.4473
vn 0.2167 0.9445 -0.2468
vn -0.7757 -0.1725 -0.6071
vn -0.8249 0.4026 -0.3968
vn -0.6217 0.3598 -0.6957
vn -0.0809 0.9797 0.1833
vn -0.4516 0.8801 -0.1464
vn 0.3988 0.1101 0.9104
vn 0.2423 -0.6500 0.7202
vn 0.7036 -0.4197 0.5734
vn -0.0843 -0.9764 -0.1989
vn -0.3941 -0.9166 -0.0667
vn 0.9026 -0.3983 -0.1631
vn 0.3490 -0.9292 0.1216
vn 0.5435 0.0992 -0.8335
vn 0.5910 -0.3244 -0.7386
vn 0.9356 0.1611 -0.3140
vn 0.6192 0.6265 0.4734
vn 0.9689 -0.1974 0.1492
vn 0.2229 0.7460 0.6275
vn -0.0166 0.9559 0.2931
vn -0.6039 0.6713 0.4297
vn -0.9425 0.3341 -0.0084
vn -0.1160 0.5576 0.8220
vn -0.1738 -0.1058 0.9791
vn -0.5753 -0.3844 -0.7219
vn 0.5118 0.7918 0.3332
vn 0.8005 0.5611 0.2105
vn 0.5255 0.8069 0.2697
vn 0.1211 0.9397 0.3197
vn 0.1408 0.8810 0.4517
vn -0.3490 0.9365 0.0348
vn -0.5711 0.7692 0.2868
vn 0.1061 0.8963 0.4305
vn 0.9053 -0.2623 -0.3342
vn 0.5904 -0.7885 -0.1726
vn 0.1227 0.9258 0.3575
vn 0.0259 0.9981 0.0568
vn 0.2178 0.9352 0.2792
vn 0.5526 -0.8299 -0.0767
vn 0.9879 -0.1546 -0.0110
vn 0.0661 0.9277 -0.3675
vn -0.3464 0.7130 -0.6097
vn -0.9688 -0.0284 -0.2461
vn -0.8484 -0.4649 -0.2532
vn -0.5626 -0.8031 -0.1960
vn -0.9646 0.2366 0.1167
vn -0.4191 -0.9036 -0.0890
vn -0.9118 -0.3850 0.1428
vn -0.1748 -0.9635 -0.2027
vn -0.1176 -0.9913 0.0594
vn -0.7855 -0.6113 0.0969
vn -0.3068 -0.8143 0.4927
vn -0.7200 -0.0662 0.6908
vn 0.2297 0.9555 0.1849
s 1
f 1/1/1 2/2/2 3/3/3
f 4/4/4 2/2/2 5/5/5
f 6/6/6 7/7/7 8/8/8
f 9/9/9 10/10/10 11/11/11
f 12/12/12 13/13/13 14/14/14
f 15/15/15 16/16/16 17/17/17
f 18/18/18 19/19/19 20/20/20
f 21/21/21 22/22/22 23/23/23
f 24/24/24 25/25/25 26/26/26
f 8/8/8 27/27/27 28/28/28
f 29/29/29 30/30/30 31/31/31
f 17/17/17 32/32/32 33/33/33
f 19/19/19 18/18/18 34/34/34
f 30/30/30 35/35/35 31/31/31
f 24/24/24 26/26/26 10/36/10
f 17/17/17 33/33/33 15/15/15
f 36/37/36 37/38/37 10/36/10
f 38/39/38 39/40/39 40/41/40
f 41/42/41 13/13/13 42/43/42
f 43/44/43 44/45/44 5/46/5
f 45/47/45 41/42/41 43/44/43
f 29/29/29 46/48/46 30/30/30
f 15/15/15 47/49/47 10/36/10
f 10/36/10 37/38/37 15/15/15
f 48/50/48 49/51/49 50/52/50
f 51/53/51 7/7/7 52/54/52
f 53/55/53 54/56/54 44/45/44
f 55/57/55 54/56/54 53/55/53
f 56/58/56 38/39/38 40/41/40
f 56/58/56 40/41/40 57/59/57
f 39/40/39 20/20/20 40/41/40
f 23/23/23 58/60/58 59/61/59
f 48/50/48 13/13/13 49/51/49
f 42/43/42 13/13/13 60/62/60
f 13/13/13 12/12/12 18/63/18
f 31/31/31 61/64/61 62/65/62
f 9/9/9 11/11/11 63/66/63
f 64/67/64 28/28/28 27/27/27
f 65/68/65 24/24/24 66/69/66
f 67/70/67 47/49/47 15/15/15
f 6/6/6 68/71/68 54/56/54
f 65/68/65 66/69/66 68/72/68
f 6/6/6 54/56/54 7/7/7
f 52/54/52 7/7/7 54/56/54
f 57/59/57 61/64/61 32/32/32
f 19/19/19 34/34/34 57/59/57
f 31/31/31 18/18/18 12/73/12
f 29/29/29 31/31/31 12/73/12
f 2/2/2 33/33/33 69/74/69
f 70/75/70 66/69/66 2/2/2
f 54/56/54 68/71/68 4/76/4
f 4/4/4 70/75/70 2/2/2
f 51/53/51 8/8/8 7/7/7
f 8/8/8 51/53/51 59/61/59
f 63/66/63 64/67/64 27/27/27
f 23/23/23 27/27/27 58/60/58
f 71/77/71 35/35/35 72/78/72
f 3/3/3 2/2/2 69/74/69
f 52/54/52 48/50/48 50/52/50
f 55/57/55 52/54/52 54/56/54
f 72/78/72 35/35/35 30/30/30
f 73/79/73 3/3/3 74/80/74
f 22/22/22 9/9/9 23/23/23
f 37/38/37 36/37/36 38/39/38
f 47/49/47 67/70/67 66/69/66
f 2/2/2 66/69/66 67/70/67
f 44/45/44 43/44/43 53/55/53
f 43/44/43 41/42/41 42/43/42
f 21/81/21 39/40/39 38/39/38
f 59/61/59 51/53/51 39/82/39
f 3/3/3 69/74/69 71/77/71
f 69/74/69 33/33/33 32/32/32
f 12/12/12 14/14/14 29/83/29
f 29/83/29 14/14/14 46/84/46
f 68/71/68 6/6/6 25/85/25
f 8/8/8 28/28/28 6/6/6
f 20/20/20 19/19/19 40/41/40
f 57/59/57 40/41/40 19/19/19
f 1/1/1 5/5/5 2/2/2
f 75/86/75 43/44/43 5/46/5
f 49/51/49 18/63/18 20/87/20
f 49/51/49 13/13/13 18/63/18
f 25/85/25 6/6/6 28/28/28
f 26/88/26 25/85/25 28/28/28
f 37/38/37 38/39/38 56/58/56
f 16/16/16 56/58/56 57/59/57
f 58/60/58 8/8/8 59/61/59
f 58/60/58 27/27/27 8/8/8
f 72/78/72 3/3/3 71/77/71
f 3/3/3 72/78/72 74/80/74
f 16/16/16 37/38/37 56/58/56
f 16/16/16 15/15/15 37/38/37
f 50/52/50 49/51/49 20/87/20
f 20/87/20 39/82/39 51/53/51
f 75/89/75 5/5/5 73/79/73
f 74/80/74 75/89/75 73/79/73
f 21/21/21 23/23/23 59/61/59
f 59/61/59 39/82/39 21/21/21
f 17/17/17 16/16/16 57/59/57
f 32/32/32 17/17/17 57/59/57
f 70/75/70 4/4/4 68/72/68
f 70/75/70 68/72/68 66/69/66
f 14/14/14 13/13/13 41/42/41
f 45/47/45 14/14/14 41/42/41
f 50/52/50 20/87/20 51/53/51
f 50/52/50 51/53/51 52/54/52
f 67/70/67 15/15/15 33/33/33
f 67/70/67 33/33/33 2/2/2
f 30/30/30 74/80/74 72/78/72
f 46/48/46 74/80/74 30/30/30
f 47/49/47 24/24/24 10/36/10
f 24/24/24 47/49/47 66/69/66
f 60/62/60 53/55/53 42/43/42
f 53/55/53 43/44/43 42/43/42
f 71/77/71 61/64/61 35/35/35
f 35/35/35 61/64/61 31/31/31
f 26/88/26 64/67/64 10/10/10
f 28/28/28 64/67/64 26/88/26
f 44/45/44 54/56/54 4/76/4
f 44/45/44 4/76/4 5/46/5
f 34/34/34 62/65/62 61/64/61
f 61/64/61 57/59/57 34/34/34
f 63/66/63 27/27/27 23/23/23
f 23/23/23 9/9/9 63/66/63
f 1/1/1 73/79/73 5/5/5
f 73/79/73 1/1/1 3/3/3
f 18/18/18 62/65/62 34/34/34
f 62/65/62 18/18/18 31/31/31
f 9/9/9 22/22/22 38/90/38
f 38/90/38 22/22/22 21/21/21
f 14/14/14 45/47/45 46/84/46
f 46/48/46 75/89/75 74/80/74
f 32/32/32 61/64/61 71/77/71
f 69/74/69 32/32/32 71/77/71
f 55/57/55 48/50/48 52/54/52
f 76/91/76 13/13/13 48/50/48
f 64/67/64 63/66/63 11/11/11
f 11/11/11 10/10/10 64/67/64
f 75/86/75 45/47/45 43/44/43
f 75/86/75 46/84/46 45/47/45
f 76/91/76 48/50/48 55/57/55
f 55/57/55 53/55/53 76/91/76
f 24/24/24 65/68/65 25/25/25
f 25/85/25 65/92/65 68/71/68
f 36/93/36 9/9/9 38/90/38
f 36/93/36 10/10/10 9/9/9
f 13/13/13 76/91/76 60/62/60
f 76/91/76 53/55/53 60/62/60
