# Blender v2.80 (sub 41) OBJ File: 'swamp.blend'
# www.blender.org
o SM_Small_Rock_04_Group5248.017
v -0.079405 0.025501 0.080467
v -0.059394 0.017393 -0.031365
v -0.043939 0.012510 0.071297
v 0.049083 0.132837 0.027437
v 0.046840 0.021612 0.014256
v 0.045212 0.110227 -0.055777
v 0.009550 0.126293 -0.082238
v -0.077713 0.119612 0.007831
v -0.028795 0.150527 0.008295
v -0.015186 0.046271 -0.078377
v 0.040307 0.079415 -0.100960
v 0.042898 0.037609 -0.051446
v -0.064853 0.021548 0.085706
v 0.007707 0.059444 0.108627
v -0.006982 0.072592 0.124982
v -0.057368 0.048656 0.104477
v -0.076728 0.109955 0.082159
v -0.098375 0.074203 0.063292
v 0.017890 0.158385 -0.005505
v -0.015612 0.092933 -0.090601
v -0.092851 0.094817 -0.025970
v -0.102332 0.058335 -0.010689
v -0.057000 0.134134 0.069547
v -0.034161 0.144500 0.026533
v 0.029178 0.115498 0.054696
v -0.017589 0.116483 0.050859
v -0.022198 0.120559 0.070126
v 0.051719 0.088299 0.058643
v -0.001173 0.010748 -0.024931
v 0.014523 0.016898 0.063010
v 0.045979 0.021735 -0.013515
v -0.006394 0.150314 0.019272
v -0.029622 0.142621 0.049179
v 0.050597 0.090044 -0.083229
vt 0.663928 0.295989
vt 0.677989 0.307607
vt 0.662685 0.302403
vt 0.646186 0.336824
vt 0.663043 0.319383
vt 0.669556 0.341214
vt 0.712065 0.294067
vt 0.733396 0.303225
vt 0.723063 0.307635
vt 0.683959 0.319214
vt 0.683369 0.335815
vt 0.673324 0.325119
vt 0.662049 0.297847
vt 0.648541 0.305599
vt 0.644385 0.300792
vt 0.746928 0.327196
vt 0.738376 0.316057
vt 0.746928 0.311821
vt 0.703622 0.299081
vt 0.714645 0.308094
vt 0.709748 0.317684
vt 0.734120 0.334548
vt 0.694149 0.323538
vt 0.694149 0.298869
vt 0.684895 0.295363
vt 0.732565 0.315082
vt 0.725595 0.310498
vt 0.716985 0.322965
vt 0.724580 0.317528
vt 0.727775 0.319759
vt 0.646485 0.322973
vt 0.672530 0.315284
vt 0.658966 0.311051
vt 0.713223 0.330343
vt 0.667985 0.286108
vt 0.736201 0.293928
vt 0.745417 0.294664
vt 0.702873 0.286108
vt 0.716059 0.286742
vt 0.667426 0.321267
vt 0.720018 0.310955
vt 0.727496 0.314385
vt 0.677743 0.338253
vt 0.701143 0.291274
vt 0.656397 0.294870
vn -0.6881 -0.5966 0.4131
vn -0.4603 -0.7717 -0.4388
vn -0.0454 -0.9438 0.3275
vn 0.7622 0.5816 0.2842
vn 0.7707 -0.6274 0.1114
vn 0.8738 0.4466 -0.1923
vn 0.0296 0.7420 -0.6698
vn -0.6888 0.7153 -0.1175
vn -0.3491 0.9349 -0.0637
vn -0.2433 -0.5555 -0.7951
vn 0.4511 -0.1179 -0.8847
vn 0.6357 -0.6349 -0.4391
vn -0.2229 -0.7796 0.5852
vn 0.5574 -0.4271 0.7120
vn 0.2081 0.0634 0.9760
vn -0.4118 -0.2188 0.8846
vn -0.6576 0.4810 0.5798
vn -0.9412 0.0838 0.3274
vn 0.2622 0.9627 -0.0665
vn -0.4382 0.1495 -0.8864
vn -0.8041 0.3604 -0.4728
vn -0.9205 -0.2436 -0.3055
vn -0.3009 0.8471 0.4381
vn -0.1788 0.9507 0.2536
vn 0.3289 0.6987 0.6353
vn 0.3977 0.8744 0.2778
vn 0.3761 0.8116 0.4470
vn 0.9000 0.1062 0.4227
vn 0.0859 -0.9584 -0.2722
vn 0.4341 -0.7994 0.4153
vn 0.7524 -0.6447 -0.1348
vn 0.0084 0.8749 0.4841
vn 0.4761 0.8585 0.1906
vn 0.9024 0.2399 -0.3579
s 1
f 1/1/1 2/2/2 3/3/3
f 4/4/4 5/5/5 6/6/6
f 7/7/7 8/8/8 9/9/9
f 10/10/10 11/11/11 12/12/12
f 13/13/13 14/14/14 15/15/15
f 16/16/16 17/17/17 18/18/18
f 6/19/6 19/20/19 4/21/4
f 15/22/15 17/17/17 16/16/16
f 20/23/20 10/10/10 21/24/21
f 1/1/1 22/25/22 2/2/2
f 8/8/8 23/26/23 24/27/24
f 25/28/25 26/29/26 27/30/27
f 15/15/15 14/14/14 28/31/28
f 27/30/27 15/22/15 25/28/25
f 20/23/20 11/11/11 10/10/10
f 19/20/19 6/19/6 7/7/7
f 2/2/2 29/32/29 3/3/3
f 30/33/30 5/5/5 28/31/28
f 4/4/4 28/31/28 5/5/5
f 15/22/15 28/34/28 25/28/25
f 18/35/18 22/25/22 1/1/1
f 18/18/18 17/17/17 8/8/8
f 22/25/22 21/24/21 10/10/10
f 18/18/18 21/36/21 22/37/22
f 2/2/2 10/10/10 29/32/29
f 2/2/2 22/25/22 10/10/10
f 11/38/11 20/39/20 7/7/7
f 7/7/7 20/39/20 21/36/21
f 6/6/6 5/5/5 31/40/31
f 29/32/29 5/5/5 30/33/30
f 17/17/17 15/22/15 23/26/23
f 17/17/17 23/26/23 8/8/8
f 25/28/25 4/21/4 32/41/32
f 28/34/28 4/21/4 25/28/25
f 4/21/4 19/20/19 32/41/32
f 7/7/7 9/9/9 19/20/19
f 14/14/14 13/13/13 3/3/3
f 29/32/29 30/33/30 3/3/3
f 21/36/21 18/18/18 8/8/8
f 7/7/7 21/36/21 8/8/8
f 28/31/28 14/14/14 30/33/30
f 14/14/14 3/3/3 30/33/30
f 9/9/9 32/41/32 19/20/19
f 24/27/24 9/9/9 8/8/8
f 10/10/10 12/12/12 29/32/29
f 29/32/29 31/40/31 5/5/5
f 23/26/23 27/30/27 33/42/33
f 23/26/23 15/22/15 27/30/27
f 34/43/34 6/6/6 31/40/31
f 6/19/6 34/44/34 7/7/7
f 16/45/16 18/35/18 1/1/1
f 15/15/15 16/45/16 13/13/13
f 25/28/25 32/41/32 26/29/26
f 33/42/33 27/30/27 26/29/26
f 34/44/34 11/38/11 7/7/7
f 11/11/11 34/43/34 12/12/12
f 26/29/26 24/27/24 33/42/33
f 24/27/24 23/26/23 33/42/33
f 31/40/31 12/12/12 34/43/34
f 12/12/12 31/40/31 29/32/29
f 13/13/13 1/1/1 3/3/3
f 1/1/1 13/13/13 16/45/16
f 26/29/26 32/41/32 24/27/24
f 9/9/9 24/27/24 32/41/32
