# Blender v2.80 (sub 41) OBJ File: 'swamp.blend'
# www.blender.org
o SM_Small_Rock_06_Group5248.015
v 0.047339 0.155614 0.061298
v -0.020583 0.123979 0.089198
v 0.037848 0.118700 0.073796
v 0.015443 0.041462 0.007432
v -0.067036 0.049572 0.045677
v -0.055326 0.033511 -0.013215
v -0.046316 0.178083 -0.110558
v -0.093946 0.129578 -0.117843
v -0.103606 0.140118 -0.039956
v -0.025428 0.072709 -0.176526
v 0.031946 0.124108 -0.131698
v 0.050848 0.065597 -0.120281
v 0.070561 0.109995 -0.065199
v 0.024934 0.155516 -0.095668
v 0.042215 0.155974 -0.021234
v -0.006933 0.189501 -0.029472
v -0.036488 0.187182 -0.076368
v -0.053875 0.193235 0.032615
v 0.035739 0.048300 -0.047032
v -0.000811 0.031461 -0.108739
v 0.059021 0.136352 0.059960
v 0.068819 0.099722 0.042846
v -0.117211 0.022291 -0.080754
v -0.118207 0.103439 0.008927
v -0.032694 0.144928 0.082793
v -0.018367 0.195558 0.031392
v -0.006054 0.037697 -0.143102
v -0.111332 0.101098 -0.107552
v -0.126454 0.073871 -0.163820
v -0.119238 0.030906 -0.126028
v -0.105037 0.069170 -0.187941
v -0.061523 0.059808 -0.190840
v -0.073041 0.028712 -0.169432
v -0.075949 0.128464 -0.150064
v -0.042085 0.119613 -0.171891
v 0.067621 0.081098 -0.091268
v 0.062704 0.071230 -0.009927
v -0.018460 0.072399 0.081375
v 0.035065 0.052118 0.030549
v 0.043860 0.088168 0.062241
v -0.003308 0.168978 -0.120609
v -0.086786 0.149459 0.047075
v -0.074491 0.176973 0.044530
v -0.091889 0.036312 -0.019385
v -0.106263 0.078730 0.022992
v -0.072763 0.072210 0.061214
v -0.077378 0.109893 0.073969
v -0.091216 0.167016 0.005173
v -0.060404 0.184994 -0.051191
v -0.089414 0.018415 -0.150522
v -0.009252 0.032714 -0.062859
v -0.048212 0.022086 -0.153087
v -0.075544 0.014169 -0.098218
v -0.060888 0.111929 0.085798
v -0.113907 0.094910 -0.167440
vt 0.597149 0.334060
vt 0.608702 0.346153
vt 0.595159 0.341764
vt 0.210611 0.824511
vt 0.226802 0.828481
vt 0.217636 0.835599
vt 0.616453 0.304113
vt 0.629046 0.299527
vt 0.632097 0.317651
vt 0.192271 0.852783
vt 0.176675 0.839598
vt 0.190456 0.837084
vt 0.585547 0.309348
vt 0.601425 0.304756
vt 0.597420 0.319250
vt 0.608025 0.318328
vt 0.614082 0.310323
vt 0.615196 0.329074
vt 0.201458 0.829228
vt 0.199854 0.841129
vt 0.187070 0.822883
vt 0.203879 0.796967
vt 0.203990 0.808700
vt 0.242172 0.862142
vt 0.215729 0.851590
vt 0.241099 0.843382
vt 0.611745 0.341216
vt 0.609621 0.328678
vt 0.196779 0.845688
vt 0.220607 0.869301
vt 0.205801 0.863748
vt 0.210504 0.856351
vt 0.201106 0.861775
vt 0.197068 0.856727
vt 0.201815 0.854599
vt 0.624557 0.292597
vt 0.617118 0.286108
vt 0.189426 0.830442
vt 0.201180 0.820214
vt 0.224632 0.815327
vt 0.210201 0.818711
vt 0.211439 0.809059
vt 0.608425 0.301362
vt 0.623040 0.335164
vt 0.618690 0.331997
vt 0.637390 0.333166
vt 0.221671 0.841364
vt 0.234787 0.837093
vt 0.232088 0.825538
vt 0.242172 0.820804
vt 0.213399 0.800096
vt 0.231913 0.803772
vt 0.623661 0.326294
vt 0.618113 0.315152
vt 0.205318 0.854291
vt 0.205765 0.836468
vt 0.201257 0.850640
vt 0.209444 0.848060
vt 0.619563 0.347881
vt 0.240250 0.814666
vt 0.184288 0.862200
vt 0.597940 0.294091
vt 0.202801 0.869428
vt 0.635574 0.286199
vt 0.637390 0.300138
vt 0.623871 0.345742
vt 0.592988 0.335153
vn 0.5765 0.6296 0.5208
vn 0.0906 0.1055 0.9903
vn 0.4171 -0.0267 0.9085
vn 0.2186 -0.9580 0.1859
vn -0.3191 -0.8046 0.5008
vn 0.0018 -0.9764 0.2159
vn -0.2846 0.8622 -0.4191
vn -0.6688 0.7012 -0.2469
vn -0.8843 0.4519 -0.1177
vn 0.4673 -0.1000 -0.8784
vn 0.6644 0.3700 -0.6494
vn 0.7621 -0.4209 -0.4920
vn 0.9451 0.2863 -0.1575
vn 0.6672 0.6974 -0.2615
vn 0.7027 0.7065 -0.0844
vn 0.3193 0.9435 -0.0882
vn -0.0105 0.9833 -0.1819
vn -0.2566 0.9181 0.3020
vn 0.5223 -0.8527 -0.0084
vn 0.3830 -0.9205 -0.0768
vn 0.8225 0.2564 0.5077
vn 0.9128 -0.1971 0.3578
vn -0.7481 -0.6490 0.1382
vn -0.9761 0.0427 0.2132
vn -0.0926 0.4871 0.8684
vn 0.1617 0.9429 0.2911
vn 0.4781 -0.7107 -0.5161
vn -0.9882 0.1384 0.0659
vn -0.9482 -0.0013 -0.3177
vn -0.8659 -0.4795 -0.1425
vn -0.4579 -0.0704 -0.8862
vn 0.1501 -0.2150 -0.9650
vn -0.0335 -0.7179 -0.6954
vn -0.4155 0.7225 -0.5525
vn 0.0978 0.5013 -0.8597
vn 0.9370 -0.2314 -0.2618
vn 0.8287 -0.5564 0.0613
vn 0.0705 -0.5625 0.8238
vn 0.4432 -0.8210 0.3599
vn 0.5304 -0.4360 0.7271
vn 0.3502 0.7828 -0.5143
vn -0.7959 0.3387 0.5017
vn -0.5717 0.6525 0.4973
vn -0.4837 -0.8034 0.3473
vn -0.8423 -0.3774 0.3849
vn -0.5348 -0.4665 0.7045
vn -0.6901 -0.0009 0.7237
vn -0.7874 0.6143 0.0516
vn -0.4889 0.8581 -0.1568
vn -0.3025 -0.8749 -0.3782
vn 0.2284 -0.9693 0.0909
vn 0.2692 -0.8671 -0.4191
vn 0.0161 -0.9979 0.0620
vn -0.3847 0.0009 0.9230
vn -0.6461 0.5796 -0.4966
s 1
f 1/1/1 2/2/2 3/3/3
f 4/4/4 5/5/5 6/6/6
f 7/7/7 8/8/8 9/9/9
f 10/10/10 11/11/11 12/12/12
f 13/13/13 14/14/14 15/15/15
f 16/16/16 17/17/17 18/18/18
f 12/12/12 19/19/19 20/20/20
f 13/21/13 21/22/21 22/23/22
f 9/24/9 23/25/23 24/26/24
f 18/18/18 25/27/25 26/28/26
f 27/29/27 10/10/10 12/12/12
f 28/30/28 29/31/29 30/32/30
f 31/33/31 32/34/32 33/35/33
f 34/36/34 7/7/7 35/37/35
f 36/38/36 22/23/22 37/39/37
f 38/40/38 39/41/39 40/42/40
f 35/37/35 7/7/7 41/43/41
f 41/43/41 17/17/17 16/16/16
f 42/44/42 43/45/43 24/46/24
f 44/47/44 5/5/5 45/48/45
f 45/48/45 46/49/46 47/50/47
f 3/51/3 2/52/2 38/40/38
f 48/53/48 49/54/49 9/9/9
f 24/46/24 48/53/48 9/9/9
f 13/21/13 22/23/22 36/38/36
f 36/38/36 11/11/11 13/21/13
f 30/32/30 29/31/29 50/55/50
f 4/4/4 6/6/6 51/56/51
f 15/15/15 14/14/14 16/16/16
f 25/27/25 1/1/1 26/28/26
f 33/35/33 32/34/32 52/57/52
f 50/55/50 52/57/52 53/58/53
f 25/27/25 43/45/43 54/59/54
f 2/52/2 54/60/54 38/40/38
f 35/61/35 32/34/32 31/33/31
f 10/10/10 35/61/35 11/11/11
f 4/4/4 38/40/38 5/5/5
f 54/60/54 46/49/46 38/40/38
f 13/13/13 11/62/11 14/14/14
f 41/43/41 11/62/11 35/37/35
f 53/58/53 51/56/51 6/6/6
f 23/25/23 44/47/44 24/26/24
f 15/15/15 16/16/16 1/1/1
f 13/13/13 15/15/15 1/1/1
f 23/25/23 50/55/50 53/58/53
f 23/25/23 53/58/53 6/6/6
f 21/22/21 40/42/40 22/23/22
f 40/42/40 39/41/39 22/23/22
f 23/25/23 28/30/28 30/32/30
f 23/25/23 30/32/30 50/55/50
f 26/28/26 1/1/1 16/16/16
f 16/16/16 18/18/18 26/28/26
f 20/20/20 27/29/27 12/12/12
f 53/58/53 52/57/52 20/20/20
f 24/46/24 43/45/43 48/53/48
f 48/53/48 18/18/18 49/54/49
f 51/56/51 19/19/19 4/4/4
f 39/41/39 37/39/37 22/23/22
f 31/33/31 55/63/55 35/61/35
f 50/55/50 29/31/29 31/33/31
f 19/19/19 39/41/39 4/4/4
f 39/41/39 38/40/38 4/4/4
f 25/27/25 18/18/18 43/45/43
f 48/53/48 43/45/43 18/18/18
f 11/11/11 36/38/36 12/12/12
f 12/12/12 36/38/36 19/19/19
f 44/47/44 45/48/45 24/26/24
f 45/48/45 47/50/47 24/26/24
f 21/22/21 3/51/3 40/42/40
f 38/40/38 40/42/40 3/51/3
f 55/63/55 31/33/31 29/31/29
f 28/30/28 55/63/55 29/31/29
f 44/47/44 23/25/23 6/6/6
f 5/5/5 44/47/44 6/6/6
f 17/17/17 49/54/49 18/18/18
f 49/54/49 7/7/7 9/9/9
f 32/34/32 10/10/10 27/29/27
f 10/10/10 32/34/32 35/61/35
f 9/24/9 28/30/28 23/25/23
f 55/64/55 28/65/28 9/9/9
f 54/59/54 2/2/2 25/27/25
f 2/2/2 1/1/1 25/27/25
f 39/41/39 19/19/19 37/39/37
f 19/19/19 36/38/36 37/39/37
f 14/14/14 11/62/11 41/43/41
f 14/14/14 41/43/41 16/16/16
f 47/66/47 42/44/42 24/46/24
f 54/59/54 43/45/43 42/44/42
f 33/35/33 52/57/52 50/55/50
f 50/55/50 31/33/31 33/35/33
f 54/60/54 47/50/47 46/49/46
f 54/59/54 42/44/42 47/66/47
f 41/43/41 7/7/7 17/17/17
f 17/17/17 7/7/7 49/54/49
f 52/57/52 32/34/32 27/29/27
f 52/57/52 27/29/27 20/20/20
f 8/8/8 55/64/55 9/9/9
f 34/36/34 8/8/8 7/7/7
f 38/40/38 46/49/46 5/5/5
f 5/5/5 46/49/46 45/48/45
f 35/37/35 55/64/55 34/36/34
f 34/36/34 55/64/55 8/8/8
f 21/67/21 1/1/1 3/3/3
f 21/67/21 13/13/13 1/1/1
f 20/20/20 51/56/51 53/58/53
f 20/20/20 19/19/19 51/56/51
