# Blender v2.80 (sub 41) OBJ File: 'swamp.blend'
# www.blender.org
o SM_Small_Rock_01_Group5248.020
v 0.025818 0.185987 0.043939
v -0.045789 0.158164 -0.007524
v -0.049500 0.083504 0.076975
v 0.043247 0.035959 -0.109067
v 0.091065 0.052673 -0.073607
v 0.029013 0.033166 -0.036673
v -0.069912 0.145297 -0.111475
v -0.044500 0.155279 -0.051046
v -0.040281 0.127994 -0.121915
v -0.112800 0.082740 -0.088435
v -0.120016 0.150070 -0.100549
v -0.120742 0.073726 -0.179815
v 0.067274 0.069245 -0.123620
v 0.050957 0.137800 -0.201377
v 0.082195 0.116995 -0.126701
v 0.077212 0.100239 0.107912
v 0.020717 0.140416 0.083664
v 0.139486 0.106683 0.047708
v 0.085069 0.176366 -0.110545
v 0.112144 0.143633 -0.019022
v 0.042655 0.172516 -0.004543
v 0.084689 0.043761 0.049861
v 0.051165 0.012153 0.063269
v 0.061667 0.027630 0.010612
v 0.112050 0.049067 -0.036234
v -0.079948 0.049466 -0.087606
v -0.016239 0.033435 -0.016457
v -0.099340 0.052727 -0.048953
v 0.050733 0.050991 0.103548
v 0.022111 0.119573 -0.239183
v 0.003874 0.146541 -0.217185
v 0.048130 0.198079 -0.177070
v -0.031588 0.031134 -0.096380
v -0.081753 0.064888 -0.216376
v -0.081637 0.118437 -0.245207
v -0.037069 0.036583 -0.207191
v -0.117551 0.119080 -0.165584
v -0.040122 0.133946 -0.205465
v 0.010379 0.173282 -0.146604
v 0.057173 0.201269 -0.140178
v -0.007115 0.149687 -0.094151
v 0.004242 0.171986 -0.059827
v -0.033133 0.014867 0.074702
v -0.058429 0.041247 0.080626
v -0.091822 -0.009319 0.040729
v -0.096363 0.081338 0.007508
v -0.121156 0.095910 -0.199468
v -0.103281 0.044472 -0.181722
v 0.103129 0.177142 0.037219
v 0.128313 0.130581 0.080783
v 0.085673 0.071433 0.086177
v 0.068335 0.177709 -0.176286
v 0.076871 0.189581 -0.138202
v 0.007295 0.016681 0.014029
v -0.035044 0.014473 0.034310
v 0.085054 0.019273 -0.005362
v 0.137447 0.062068 0.059611
v 0.079364 0.029746 -0.045790
v -0.104101 0.054290 -0.017854
v 0.088866 0.171880 0.002982
v -0.041522 0.108922 -0.263848
v -0.008573 0.079357 -0.242248
v 0.016879 0.077869 -0.214257
v -0.021908 0.016483 -0.183770
v 0.069563 0.212143 0.073930
v -0.059709 0.033382 -0.149358
v 0.073802 0.177168 -0.074818
v 0.038849 0.166569 -0.102136
v -0.085650 0.035563 -0.014593
v -0.065254 -0.000147 0.012435
v -0.067102 0.135961 -0.224809
v -0.114465 0.122713 -0.202820
v 0.138200 0.082915 0.083484
v -0.059522 0.161555 -0.031096
v -0.104348 0.143932 -0.054204
v 0.036544 0.043493 -0.135976
v -0.021449 0.012499 -0.137348
v -0.090526 0.034300 0.049539
v -0.007562 0.152830 -0.136272
v 0.041116 0.165553 -0.068099
v 0.083967 0.191463 0.094467
v -0.065011 0.133799 -0.146895
v 0.033210 0.017874 0.089883
v 0.089866 0.155762 -0.028084
v 0.117038 0.128350 0.114565
vt 0.855275 0.786417
vt 0.843888 0.799493
vt 0.832376 0.779558
vt 0.054638 0.832639
vt 0.064919 0.839705
vt 0.051592 0.847125
vt 0.843468 0.822226
vt 0.846438 0.808252
vt 0.850647 0.823590
vt 0.018840 0.834588
vt 0.003497 0.827889
vt 0.023890 0.817619
vt 0.062218 0.828042
vt 0.065557 0.805047
vt 0.072045 0.823078
vt 0.853597 0.763312
vt 0.849129 0.777802
vt 0.879751 0.772652
vt 0.877629 0.812389
vt 0.877117 0.790525
vt 0.861259 0.793806
vt 0.062879 0.865053
vt 0.054168 0.866118
vt 0.057709 0.856744
vt 0.068838 0.847597
vt 0.086682 0.819631
vt 0.084608 0.864409
vt 0.029121 0.836284
vt 0.042713 0.850846
vt 0.024873 0.844512
vt 0.842150 0.759939
vt 0.872518 0.848298
vt 0.867204 0.841027
vt 0.874504 0.828223
vt 0.039945 0.834834
vt 0.031324 0.812014
vt 0.027607 0.799243
vt 0.040025 0.815387
vt 0.836102 0.837546
vt 0.831939 0.821943
vt 0.855970 0.841570
vt 0.865249 0.824771
vt 0.874446 0.822465
vt 0.856576 0.815543
vt 0.857224 0.806712
vt 0.039553 0.868354
vt 0.033056 0.873502
vt 0.032174 0.861819
vt 0.016070 0.857689
vt 0.021885 0.812566
vt 0.029193 0.818924
vt 0.867477 0.782257
vt 0.870884 0.769520
vt 0.056144 0.876702
vt 0.066022 0.874791
vt 0.068149 0.883606
vt 0.879751 0.828993
vt 0.085666 0.811485
vt 0.077724 0.804533
vt 0.047171 0.857470
vt 0.039773 0.861044
vt 0.061897 0.853714
vt 0.074080 0.865377
vt 0.061592 0.846503
vt 0.023221 0.851464
vt 0.868537 0.788856
vt 0.037944 0.796967
vt 0.045049 0.805315
vt 0.051034 0.809651
vt 0.042668 0.820181
vt 0.860215 0.780961
vt 0.035472 0.824831
vt 0.872624 0.806157
vt 0.867063 0.813973
vt 0.028987 0.852271
vt 0.034568 0.858299
vt 0.850757 0.847317
vt 0.839042 0.845230
vt 0.076538 0.870987
vt 0.842452 0.804968
vt 0.833671 0.811287
vt 0.824510 0.794925
vt 0.824713 0.775276
vt 0.054059 0.827055
vt 0.042609 0.827121
vt 0.858617 0.856355
vt 0.086682 0.875914
vt 0.818394 0.782600
vt 0.027011 0.865600
vt 0.859450 0.824003
vt 0.865268 0.806626
vt 0.860839 0.777442
vt 0.846603 0.829931
vt 0.051134 0.870717
vt 0.014740 0.817043
vt 0.017711 0.808461
vt 0.054705 0.799198
vt 0.872797 0.794694
vt 0.864188 0.765636
vt 0.081164 0.883686
vt 0.878659 0.820342
vt 0.848331 0.853594
vn -0.4472 0.8889 0.0998
vn -0.4300 0.8581 0.2808
vn -0.5377 0.3536 0.7654
vn 0.3673 -0.9181 -0.1488
vn 0.6347 -0.6304 -0.4469
vn -0.0339 -0.9945 -0.0990
vn 0.1425 0.9556 -0.2578
vn -0.0297 0.9816 -0.1888
vn -0.0909 0.9868 -0.1337
vn -0.9373 -0.3378 0.0859
vn -0.6725 0.7399 -0.0180
vn -0.9346 -0.3304 -0.1318
vn 0.7603 -0.4339 -0.4833
vn 0.8359 -0.1448 -0.5294
vn 0.9175 -0.1310 -0.3755
vn -0.0147 -0.1465 0.9891
vn -0.4373 0.3922 0.8093
vn 0.9814 0.1694 -0.0902
vn 0.7039 0.7102 -0.0158
vn 0.7738 0.6226 -0.1166
vn 0.0246 0.9782 -0.2062
vn 0.4419 -0.8137 0.3776
vn 0.4026 -0.8984 0.1755
vn 0.0574 -0.9981 0.0204
vn 0.8361 -0.4504 -0.3131
vn -0.4594 -0.8871 0.0456
vn -0.0064 -0.9484 -0.3169
vn -0.6033 -0.7800 -0.1662
vn 0.2099 -0.3206 0.9237
vn 0.5619 0.1040 -0.8206
vn -0.1607 0.7420 -0.6508
vn 0.0530 0.9013 -0.4300
vn -0.2022 -0.9458 0.2541
vn -0.3801 -0.5289 -0.7588
vn -0.4967 0.2612 -0.8277
vn -0.0725 -0.7767 -0.6257
vn -0.5778 0.7836 -0.2284
vn -0.2429 0.9558 -0.1656
vn -0.5595 0.7955 0.2325
vn -0.0348 0.9475 0.3177
vn -0.3433 0.9181 -0.1980
vn -0.1473 0.9672 -0.2071
vn -0.0618 -0.8062 0.5884
vn -0.4561 -0.0868 0.8857
vn -0.5500 -0.8112 0.1988
vn -0.8788 0.2861 0.3820
vn -0.9036 -0.1053 -0.4153
vn -0.5950 -0.7673 -0.2393
vn 0.7324 0.6664 -0.1399
vn 0.9011 0.3929 0.1837
vn 0.4107 -0.6031 0.6838
vn 0.8033 0.2970 -0.5162
vn 0.8006 0.5935 -0.0819
vn 0.0404 -0.9385 -0.3429
vn 0.2414 -0.9673 -0.0781
vn 0.2262 -0.9737 0.0254
vn 0.7566 -0.6004 0.2592
vn 0.1595 -0.8771 -0.4530
vn -0.9611 -0.2754 0.0201
vn 0.3133 0.8610 -0.4006
vn -0.1176 0.1218 -0.9856
vn 0.3473 -0.5487 -0.7605
vn 0.6688 -0.5309 -0.5204
vn 0.0604 -0.9136 -0.4021
vn -0.0080 0.9691 0.2464
vn -0.3759 -0.9262 0.0298
vn 0.0634 0.9797 0.1903
vn -0.2815 0.9513 0.1254
vn -0.3394 -0.7712 -0.5386
vn 0.0832 -0.9037 -0.4199
vn -0.0705 0.9740 -0.2153
vn -0.7010 0.6694 -0.2461
vn 0.7571 -0.3499 0.5517
vn -0.1467 0.9834 0.1071
vn -0.6599 0.6939 0.2882
vn 0.5896 -0.6943 -0.4126
vn -0.0472 -0.9929 0.1092
vn -0.8683 0.0684 0.4913
vn -0.5849 0.7961 0.1554
vn -0.0899 0.9958 -0.0181
vn 0.2616 0.6282 0.7327
vn 0.0161 0.9904 -0.1371
vn 0.1267 -0.7383 0.6624
vn 0.3306 0.9432 -0.0333
vn 0.4659 0.1355 0.8744
s 1
f 1/1/1 2/2/2 3/3/3
f 4/4/4 5/5/5 6/6/6
f 7/7/7 8/8/8 9/9/9
f 10/10/10 11/11/11 12/12/12
f 13/13/13 14/14/14 15/15/15
f 16/16/16 17/17/17 3/3/3
f 18/18/18 19/19/19 20/20/20
f 2/2/2 1/1/1 21/21/21
f 22/22/22 23/23/23 24/24/24
f 25/25/25 19/26/19 18/27/18
f 26/28/26 27/29/27 28/30/28
f 29/31/29 16/16/16 3/3/3
f 30/32/30 31/33/31 32/34/32
f 33/35/33 6/6/6 26/28/26
f 34/36/34 35/37/35 36/38/36
f 7/7/7 37/39/37 11/40/11
f 15/15/15 19/26/19 25/25/25
f 32/34/32 38/41/38 39/42/39
f 40/43/40 39/42/39 19/19/19
f 41/44/41 8/8/8 42/45/42
f 43/46/43 44/47/44 45/48/45
f 46/49/46 11/11/11 10/10/10
f 35/37/35 34/36/34 47/50/47
f 12/12/12 48/51/48 10/10/10
f 49/52/49 50/53/50 18/18/18
f 29/54/29 51/55/51 16/56/16
f 30/32/30 32/34/32 52/57/52
f 53/58/53 19/26/19 52/59/52
f 54/60/54 24/24/24 23/23/23
f 45/48/45 55/61/55 43/46/43
f 56/62/56 25/25/25 57/63/57
f 58/64/58 6/6/6 5/5/5
f 28/30/28 10/10/10 26/28/26
f 59/65/59 46/49/46 10/10/10
f 60/66/60 21/21/21 1/1/1
f 20/20/20 49/52/49 18/18/18
f 61/67/61 62/68/62 36/38/36
f 63/69/63 13/13/13 64/70/64
f 60/66/60 1/1/1 65/71/65
f 3/3/3 17/17/17 1/1/1
f 48/51/48 66/72/66 26/28/26
f 10/10/10 48/51/48 26/28/26
f 67/73/67 19/19/19 68/74/68
f 20/20/20 19/19/19 67/73/67
f 45/48/45 46/49/46 59/65/59
f 69/75/69 27/29/27 70/76/70
f 32/34/32 31/33/31 38/41/38
f 71/77/71 72/78/72 38/41/38
f 56/62/56 57/63/57 22/22/22
f 73/79/73 16/56/16 51/55/51
f 74/80/74 7/7/7 75/81/75
f 46/82/46 2/2/2 75/81/75
f 5/5/5 15/15/15 25/25/25
f 5/5/5 25/25/25 58/64/58
f 3/3/3 44/83/44 29/31/29
f 3/3/3 2/2/2 46/82/46
f 48/51/48 36/38/36 66/72/66
f 64/70/64 76/84/76 77/85/77
f 35/37/35 61/67/61 36/38/36
f 38/41/38 61/86/61 71/77/71
f 24/24/24 56/62/56 22/22/22
f 24/24/24 6/6/6 56/62/56
f 25/25/25 18/27/18 57/63/57
f 18/27/18 50/87/50 73/79/73
f 44/83/44 3/3/3 78/88/78
f 44/47/44 78/89/78 45/48/45
f 27/29/27 55/61/55 70/76/70
f 27/29/27 24/24/24 54/60/54
f 79/90/79 38/41/38 9/9/9
f 80/91/80 79/90/79 41/44/41
f 49/52/49 81/92/81 50/53/50
f 49/52/49 60/66/60 65/71/65
f 82/93/82 38/41/38 37/39/37
f 82/93/82 9/9/9 38/41/38
f 66/72/66 64/70/64 77/85/77
f 33/35/33 4/4/4 6/6/6
f 83/94/83 23/23/23 51/55/51
f 55/61/55 23/23/23 83/94/83
f 77/85/77 76/84/76 4/4/4
f 77/85/77 4/4/4 33/35/33
f 80/91/80 41/44/41 42/45/42
f 42/45/42 8/8/8 21/21/21
f 11/11/11 37/95/37 47/50/47
f 47/50/47 72/96/72 35/37/35
f 30/97/30 62/68/62 61/67/61
f 63/69/63 14/14/14 13/13/13
f 80/91/80 21/21/21 84/98/84
f 21/21/21 80/91/80 42/45/42
f 85/99/85 81/92/81 16/16/16
f 16/56/16 73/79/73 85/100/85
f 36/38/36 63/69/63 64/70/64
f 36/38/36 64/70/64 66/72/66
f 46/82/46 75/81/75 11/40/11
f 7/7/7 11/40/11 75/81/75
f 43/46/43 55/61/55 83/94/83
f 83/94/83 44/47/44 43/46/43
f 66/72/66 33/35/33 26/28/26
f 66/72/66 77/85/77 33/35/33
f 32/34/32 39/42/39 40/43/40
f 52/57/52 32/34/32 53/101/53
f 7/7/7 74/80/74 8/8/8
f 21/21/21 8/8/8 2/2/2
f 27/29/27 26/28/26 6/6/6
f 6/6/6 24/24/24 27/29/27
f 31/33/31 61/86/61 38/41/38
f 30/32/30 61/86/61 31/33/31
f 81/92/81 17/17/17 16/16/16
f 65/71/65 1/1/1 17/17/17
f 45/48/45 69/75/69 70/76/70
f 70/76/70 55/61/55 45/48/45
f 67/73/67 68/74/68 80/91/80
f 67/73/67 80/91/80 84/98/84
f 72/96/72 47/50/47 37/95/37
f 38/41/38 72/78/72 37/39/37
f 44/47/44 83/94/83 29/54/29
f 51/55/51 29/54/29 83/94/83
f 72/78/72 71/77/71 35/102/35
f 71/77/71 61/86/61 35/102/35
f 13/13/13 15/15/15 5/5/5
f 76/84/76 5/5/5 4/4/4
f 45/48/45 78/89/78 46/49/46
f 78/88/78 3/3/3 46/82/46
f 65/71/65 81/92/81 49/52/49
f 81/92/81 65/71/65 17/17/17
f 62/68/62 30/97/30 63/69/63
f 62/68/62 63/69/63 36/38/36
f 56/62/56 58/64/58 25/25/25
f 58/64/58 56/62/56 6/6/6
f 19/19/19 39/42/39 68/74/68
f 39/42/39 38/41/38 79/90/79
f 48/51/48 47/50/47 34/36/34
f 36/38/36 48/51/48 34/36/34
f 8/8/8 74/80/74 2/2/2
f 75/81/75 2/2/2 74/80/74
f 15/15/15 14/14/14 52/59/52
f 19/26/19 15/15/15 52/59/52
f 85/99/85 50/53/50 81/92/81
f 50/87/50 85/100/85 73/79/73
f 55/61/55 27/29/27 54/60/54
f 54/60/54 23/23/23 55/61/55
f 37/39/37 7/7/7 82/93/82
f 82/93/82 7/7/7 9/9/9
f 20/20/20 60/66/60 49/52/49
f 20/20/20 67/73/67 84/98/84
f 22/22/22 51/55/51 23/23/23
f 73/79/73 51/55/51 22/22/22
f 10/10/10 28/30/28 59/65/59
f 69/75/69 28/30/28 27/29/27
f 79/90/79 9/9/9 41/44/41
f 41/44/41 9/9/9 8/8/8
f 45/48/45 59/65/59 69/75/69
f 59/65/59 28/30/28 69/75/69
f 57/63/57 18/27/18 73/79/73
f 73/79/73 22/22/22 57/63/57
f 68/74/68 79/90/79 80/91/80
f 39/42/39 79/90/79 68/74/68
f 30/97/30 52/59/52 14/14/14
f 63/69/63 30/97/30 14/14/14
f 12/12/12 47/50/47 48/51/48
f 11/11/11 47/50/47 12/12/12
f 60/66/60 20/20/20 84/98/84
f 84/98/84 21/21/21 60/66/60
f 64/70/64 13/13/13 76/84/76
f 76/84/76 13/13/13 5/5/5
f 19/19/19 53/101/53 40/43/40
f 53/101/53 32/34/32 40/43/40
